<svg width="367.000000" height="132.000000" viewBox="0 0 367 132" fill="none" xmlns="http://www.w3.org/2000/svg" xmlns:xlink="http://www.w3.org/1999/xlink">
	<desc>
			Created with Pixso.
	</desc>
	<defs/>
	<rect id="Logo_1" rx="29.000000" width="365.000000" height="130.000000" transform="translate(1.000000 1.000000)" fill="#121E28" fill-opacity="1.000000"/>
	<path id="ALLIANCE" d="M292.21 58.37C291.19 57.27 290.2 56.54 289.24 56.18C288.3 55.81 287.35 55.63 286.38 55.63C284.95 55.63 283.64 55.89 282.47 56.41C281.32 56.91 280.33 57.61 279.5 58.53C278.66 59.41 278.01 60.46 277.54 61.66C277.09 62.86 276.87 64.15 276.87 65.53C276.87 67.02 277.09 68.39 277.54 69.64C278.01 70.89 278.66 71.97 279.5 72.89C280.33 73.8 281.32 74.52 282.47 75.04Q284.23 75.82 286.38 75.82C287.5 75.82 288.59 75.56 289.63 75.04C290.7 74.49 291.69 73.63 292.6 72.46L296.68 75.35C295.42 77.07 293.89 78.33 292.1 79.11C290.3 79.89 288.38 80.28 286.34 80.28C284.2 80.28 282.23 79.94 280.43 79.27C278.66 78.56 277.12 77.58 275.82 76.33C274.54 75.05 273.53 73.53 272.8 71.75C272.07 69.98 271.71 68.01 271.71 65.84C271.71 63.63 272.07 61.62 272.8 59.82C273.53 57.99 274.54 56.44 275.82 55.16C277.12 53.88 278.66 52.9 280.43 52.23C282.23 51.52 284.2 51.17 286.34 51.17C288.22 51.17 289.96 51.51 291.55 52.19Q293.97 53.17 296.05 55.55L292.21 58.37ZM128.96 51.87L133.23 51.87L145.17 79.58L139.53 79.58L136.95 73.24L124.94 73.24L122.43 79.58L116.91 79.58L128.96 51.87ZM150.59 51.87L155.52 51.87L155.52 75.12L169.48 75.12L169.48 79.58L150.59 79.58L150.59 51.87ZM173.23 51.87L178.16 51.87L178.16 75.12L192.12 75.12L192.12 79.58L173.23 79.58L173.23 51.87ZM195.76 51.87L200.69 51.87L200.69 79.58L195.76 79.58L195.76 51.87ZM218.07 51.87L222.34 51.87L234.28 79.58L228.64 79.58L226.06 73.24L214.04 73.24L211.54 79.58L206.02 79.58L218.07 51.87ZM239.7 51.87L246.24 51.87L259.66 72.46L259.74 72.46L259.74 51.87L264.67 51.87L264.67 79.58L258.41 79.58L244.71 58.33L244.63 58.33L244.63 79.58L239.7 79.58L239.7 51.87ZM302.33 51.87L323.29 51.87L323.29 56.33L307.26 56.33L307.26 63.14L322.59 63.14L322.59 67.6L307.26 67.6L307.26 75.12L324 75.12L324 79.58L302.33 79.58L302.33 51.87ZM135.23 69.01L130.96 57.74L126.62 69.01L135.23 69.01ZM224.34 69.01L220.07 57.74L215.73 69.01L224.34 69.01Z" fill="#FFFFFF" fill-opacity="1.000000" fill-rule="evenodd"/>
	<path id="Subtract" d="M69.5234 39C54.875 39 43 50.8746 43 65.5228C43 80.171 54.875 92.0457 69.5234 92.0457C84.1719 92.0457 96.0469 80.171 96.0469 65.5228C96.0469 50.8746 84.1719 39 69.5234 39ZM63.3438 64.0157C59.125 71.2493 52.043 78.332 52.043 78.332C52.043 78.332 60.1797 75.1674 69.6758 75.1674C79.168 75.1674 87.1562 78.332 87.1562 78.332C87.1562 78.332 80.375 71.5507 76.0039 64.0157C71.6328 56.4808 69.6758 48.0417 69.6758 48.0417C69.6758 48.0417 67.5664 56.7822 63.3438 64.0157Z" clip-rule="evenodd" fill="#FFFFFF" fill-opacity="1.000000" fill-rule="evenodd"/>
	<rect id="Logo_1" rx="29.000000" width="365.000000" height="130.000000" transform="translate(1.000000 1.000000)" stroke="#2A3744" stroke-opacity="1.000000" stroke-width="2.000000"/>
</svg>
