<svg width="32.308594" height="32.309631" viewBox="0 0 32.3086 32.3096" fill="none" xmlns="http://www.w3.org/2000/svg" xmlns:xlink="http://www.w3.org/1999/xlink">
	<desc>
			Created with Pixso.
	</desc>
	<defs/>
	<path id="Star 20" d="M16.15 1.15L16.93 8.66C17.3 12.2 20.1 15 23.64 15.37L31.15 16.15L23.64 16.93C20.1 17.3 17.3 20.1 16.93 23.64L16.15 31.15L15.37 23.64C15 20.1 12.21 17.3 8.67 16.93L1.15 16.15L8.67 15.37C12.21 15 15 12.2 15.37 8.66L16.15 1.15Z" fill="#4BE1F4" fill-opacity="1.000000" fill-rule="nonzero"/>
	<path id="Star 20" d="M16.93 8.66C17.3 12.2 20.1 15 23.64 15.37L31.15 16.15L23.64 16.93C20.1 17.3 17.3 20.1 16.93 23.64L16.15 31.15L15.37 23.64C15 20.1 12.21 17.3 8.67 16.93L1.15 16.15L8.67 15.37C12.21 15 15 12.2 15.37 8.66L16.15 1.15L16.93 8.66Z" stroke="#4BE1F4" stroke-opacity="1.000000" stroke-width="2.309695" stroke-linejoin="round"/>
</svg>
