<svg width="316.953125" height="114.000000" viewBox="0 0 316.953 114" fill="none" xmlns="http://www.w3.org/2000/svg" xmlns:xlink="http://www.w3.org/1999/xlink">
	<desc>
			Created with Pixso.
	</desc>
	<defs>
		<clipPath id="clip8758_23325">
			<rect id="circle 4" rx="0.000000" width="236.374939" height="87.829483" transform="translate(38.993996 13.085302)" fill="white" fill-opacity="0"/>
		</clipPath>
	</defs>
	<rect id="Logo_10" rx="23.136364" width="315.227295" height="112.272728" transform="translate(0.863636 0.863636)" fill="#121E28" fill-opacity="1.000000"/>
	<rect id="circle 4" rx="0.000000" width="236.374939" height="87.829483" transform="translate(38.993996 13.085302)" fill="#FFFFFF" fill-opacity="0"/>
	<g clip-path="url(#clip8758_23325)">
		<path id="Vector" d="M95.6 41.93L94.29 39.63C94.19 39.45 94.04 39.3 93.87 39.18C93.7 39.07 93.5 38.99 93.3 38.97C93.09 38.94 92.89 38.96 92.69 39.03C92.49 39.09 92.32 39.2 92.17 39.35L89.16 42.35C88.94 42.58 88.8 42.87 88.78 43.18C88.75 43.49 88.82 43.8 89 44.06C90.09 45.73 90.97 47.54 91.61 49.44C92.8 52.98 93.14 56.76 92.58 60.46C92.03 64.16 90.6 67.68 88.42 70.72C86.23 73.76 83.36 76.24 80.03 77.94C76.7 79.65 73.01 80.55 69.27 80.55C65.42 80.56 61.62 79.61 58.22 77.8L63.31 72.72C66.46 73.91 69.89 74.13 73.17 73.35C76.45 72.56 79.41 70.82 81.69 68.33C83.96 65.85 85.44 62.74 85.92 59.4C86.41 56.07 85.89 52.67 84.42 49.64C84.33 49.44 84.19 49.27 84.02 49.14C83.85 49.01 83.65 48.93 83.43 48.89C83.22 48.85 83 48.87 82.8 48.94C82.59 49 82.41 49.11 82.26 49.27L79.21 52.29C79.05 52.45 78.93 52.65 78.87 52.87C78.81 53.09 78.8 53.33 78.85 53.55L79.12 54.64C79.57 56.56 79.45 58.56 78.77 60.41C78.1 62.26 76.9 63.87 75.33 65.04C73.75 66.22 71.87 66.91 69.91 67.03C67.94 67.15 65.99 66.7 64.28 65.72L62.94 64.96C62.68 64.81 62.39 64.75 62.09 64.79C61.8 64.83 61.53 64.96 61.32 65.17L48.9 77.59C48.76 77.73 48.66 77.89 48.59 78.07C48.52 78.25 48.5 78.44 48.51 78.63C48.52 78.82 48.57 79.01 48.66 79.18C48.75 79.35 48.88 79.49 49.03 79.61L50.86 81.01C56.14 85.08 62.62 87.28 69.28 87.26C74.58 87.25 79.8 85.85 84.39 83.2C88.98 80.55 92.8 76.74 95.47 72.16C98.13 67.57 99.55 62.36 99.57 57.06C99.59 51.76 98.22 46.54 95.6 41.93Z" fill="#FFFFFF" fill-opacity="1.000000" fill-rule="nonzero"/>
		<path id="Vector" d="M87.69 32.9C82.42 28.83 75.94 26.63 69.27 26.65C63.97 26.66 58.75 28.05 54.16 30.7C49.56 33.35 45.73 37.16 43.07 41.75C40.41 46.34 38.99 51.55 38.97 56.86C38.95 62.16 40.32 67.38 42.95 71.99L44.26 74.29C44.36 74.47 44.5 74.62 44.67 74.73C44.85 74.85 45.04 74.92 45.25 74.95C45.45 74.98 45.66 74.96 45.86 74.89C46.05 74.83 46.23 74.72 46.38 74.57L49.38 71.57C49.6 71.35 49.74 71.06 49.76 70.75C49.8 70.44 49.72 70.13 49.55 69.87C48.45 68.2 47.57 66.39 46.94 64.49C45.74 60.94 45.41 57.16 45.96 53.46C46.51 49.76 47.94 46.25 50.13 43.21C52.31 40.17 55.18 37.69 58.51 35.98C61.84 34.27 65.53 33.38 69.27 33.38C73.12 33.37 76.92 34.32 80.32 36.13L75.23 41.22C72.68 40.25 69.94 39.92 67.23 40.25C64.53 40.58 61.94 41.56 59.7 43.11C57.46 44.65 55.62 46.72 54.36 49.14C53.09 51.55 52.43 54.24 52.43 56.96C52.43 57.24 52.51 58.52 52.53 58.74C52.74 60.67 53.28 62.55 54.12 64.3C54.21 64.49 54.35 64.66 54.52 64.79C54.69 64.92 54.9 65.01 55.11 65.04C55.32 65.08 55.54 65.06 55.75 65C55.95 64.93 56.14 64.82 56.29 64.67L59.33 61.62C59.5 61.46 59.61 61.26 59.67 61.04C59.74 60.82 59.75 60.59 59.69 60.36L59.43 59.27C58.98 57.35 59.1 55.35 59.77 53.5C60.44 51.65 61.64 50.04 63.22 48.86C64.79 47.69 66.68 47 68.64 46.88C70.6 46.76 72.56 47.21 74.27 48.19L75.61 48.96C75.87 49.1 76.16 49.16 76.46 49.12C76.75 49.08 77.02 48.95 77.23 48.74L89.65 36.32C89.78 36.19 89.89 36.02 89.96 35.84C90.02 35.66 90.05 35.47 90.04 35.28C90.03 35.09 89.97 34.9 89.88 34.73C89.79 34.56 89.67 34.42 89.51 34.3L87.69 32.9Z" fill="#FFFFFF" fill-opacity="1.000000" fill-rule="nonzero"/>
		<path id="Vector" d="M138.75 65.32C138.52 65.14 138.23 65.04 137.94 65.04C137.65 65.05 137.37 65.16 137.15 65.36C135.2 66.87 132.94 68.27 129.64 68.27C123.6 68.27 118.68 63.18 118.68 56.91C118.68 50.65 123.58 45.52 129.6 45.52C132.21 45.52 135.04 46.62 137.11 48.44C137.23 48.58 137.37 48.69 137.54 48.76C137.7 48.83 137.88 48.87 138.06 48.87C138.21 48.85 138.37 48.81 138.5 48.73C138.64 48.65 138.75 48.55 138.84 48.42L140.81 46.4C140.93 46.28 141.03 46.13 141.1 45.97C141.16 45.81 141.2 45.64 141.19 45.46C141.19 45.28 141.14 45.11 141.07 44.95C140.99 44.79 140.88 44.65 140.75 44.54C137.31 41.55 133.86 40.21 129.55 40.21C120.35 40.21 112.86 47.75 112.86 57.01C112.87 61.43 114.62 65.68 117.75 68.81C120.88 71.94 125.12 73.7 129.55 73.71C131.63 73.73 133.69 73.35 135.62 72.57C137.55 71.79 139.31 70.64 140.79 69.19C140.92 69.05 141.03 68.9 141.09 68.72C141.16 68.55 141.19 68.36 141.19 68.18C141.19 68.03 141.16 67.89 141.09 67.75C141.03 67.62 140.94 67.5 140.84 67.39L138.75 65.32Z" fill="#FFFFFF" fill-opacity="1.000000" fill-rule="nonzero"/>
		<path id="Vector" d="M153.05 40.67L150.07 40.67C149.74 40.68 149.42 40.81 149.19 41.05C148.96 41.29 148.82 41.6 148.81 41.93L148.81 72C148.82 72.33 148.96 72.65 149.19 72.88C149.42 73.12 149.74 73.26 150.07 73.27L153.05 73.27C153.39 73.26 153.7 73.12 153.94 72.88C154.17 72.65 154.3 72.33 154.32 72L154.32 41.93C154.3 41.6 154.17 41.29 153.93 41.05C153.7 40.81 153.39 40.68 153.05 40.67Z" fill="#FFFFFF" fill-opacity="1.000000" fill-rule="nonzero"/>
		<path id="Vector" d="M188.29 50.79C188.29 45.21 183.69 40.67 178.05 40.67L165.77 40.67C165.43 40.67 165.11 40.8 164.88 41.04C164.64 41.28 164.51 41.6 164.51 41.93L164.51 72C164.51 72.33 164.64 72.66 164.87 72.89C165.11 73.13 165.43 73.27 165.77 73.27L168.7 73.27C169.03 73.26 169.35 73.12 169.59 72.88C169.82 72.65 169.96 72.33 169.96 72L169.96 60.82L176.12 60.82L182.02 72.62C182.12 72.81 182.28 72.97 182.47 73.09C182.66 73.2 182.88 73.26 183.1 73.26L186.62 73.26C186.84 73.26 187.06 73.21 187.26 73.11C187.45 73 187.62 72.85 187.73 72.66C187.85 72.46 187.91 72.23 187.91 72C187.91 71.77 187.85 71.55 187.73 71.35L181.75 60.2C185.8 58.41 188.29 54.84 188.29 50.79ZM182.78 50.88C182.78 53.71 180.45 56.11 177.69 56.11L170.06 56.11L170.06 45.88L177.68 45.88C180.44 45.88 182.78 48.17 182.78 50.88L182.78 50.88Z" fill="#FFFFFF" fill-opacity="1.000000" fill-rule="nonzero"/>
		<path id="Vector" d="M220.34 65.32C220.11 65.14 219.83 65.04 219.53 65.04C219.24 65.05 218.96 65.16 218.75 65.36C216.8 66.87 214.54 68.27 211.24 68.27C205.19 68.27 200.28 63.18 200.28 56.91C200.28 50.65 205.17 45.52 211.19 45.52C213.8 45.52 216.63 46.62 218.71 48.44C218.82 48.58 218.97 48.69 219.14 48.76C219.3 48.83 219.48 48.87 219.66 48.87C219.82 48.85 219.97 48.81 220.1 48.73C220.24 48.65 220.35 48.55 220.44 48.42L222.41 46.4C222.53 46.28 222.63 46.13 222.7 45.97C222.77 45.81 222.8 45.64 222.79 45.46C222.78 45.28 222.74 45.11 222.67 44.95C222.59 44.79 222.48 44.65 222.35 44.54C218.92 41.55 215.47 40.21 211.16 40.21C201.96 40.21 194.47 47.75 194.47 57.01C194.48 61.43 196.23 65.68 199.36 68.81C202.49 71.94 206.73 73.7 211.16 73.71C213.24 73.73 215.3 73.35 217.23 72.57C219.16 71.79 220.92 70.64 222.4 69.19C222.53 69.05 222.64 68.89 222.7 68.72C222.77 68.55 222.8 68.36 222.8 68.18C222.8 68.03 222.77 67.88 222.7 67.75C222.64 67.61 222.55 67.49 222.44 67.39L220.34 65.32Z" fill="#FFFFFF" fill-opacity="1.000000" fill-rule="nonzero"/>
		<path id="Vector" d="M247.73 68.22L235.91 68.22L235.91 41.93C235.9 41.6 235.76 41.29 235.53 41.05C235.29 40.81 234.98 40.68 234.65 40.67L231.67 40.67C231.33 40.67 231.01 40.8 230.78 41.04C230.54 41.28 230.41 41.6 230.41 41.93L230.41 72C230.41 72.33 230.54 72.66 230.77 72.89C231.01 73.13 231.33 73.27 231.67 73.27L247.73 73.27C247.89 73.27 248.06 73.24 248.21 73.17C248.36 73.11 248.5 73.01 248.62 72.9C248.74 72.78 248.83 72.64 248.89 72.48C248.96 72.33 248.99 72.16 248.99 72L248.99 69.5C248.99 69.33 248.96 69.17 248.9 69.01C248.84 68.86 248.74 68.72 248.62 68.6C248.51 68.48 248.37 68.38 248.21 68.32C248.06 68.25 247.89 68.22 247.73 68.22Z" fill="#FFFFFF" fill-opacity="1.000000" fill-rule="nonzero"/>
		<path id="Vector" d="M274.47 45.75C274.81 45.75 275.13 45.62 275.37 45.38C275.6 45.14 275.73 44.82 275.73 44.49L275.73 41.94C275.73 41.61 275.6 41.29 275.37 41.05C275.13 40.81 274.81 40.68 274.47 40.67L256.43 40.67C256.1 40.68 255.78 40.81 255.54 41.05C255.3 41.29 255.17 41.61 255.17 41.94L255.17 72.01C255.17 72.34 255.3 72.66 255.54 72.9C255.78 73.14 256.1 73.28 256.43 73.28L274.47 73.28C274.81 73.28 275.13 73.14 275.37 72.9C275.6 72.66 275.73 72.34 275.73 72.01L275.73 69.51C275.73 69.17 275.6 68.85 275.37 68.62C275.13 68.38 274.81 68.24 274.47 68.24L260.62 68.24L260.62 59.27L272.25 59.27C272.59 59.27 272.91 59.14 273.15 58.9C273.39 58.66 273.52 58.34 273.52 58L273.52 55.46C273.51 55.13 273.37 54.81 273.14 54.58C272.9 54.34 272.59 54.2 272.25 54.19L260.62 54.19L260.62 45.75L274.47 45.75Z" fill="#FFFFFF" fill-opacity="1.000000" fill-rule="nonzero"/>
	</g>
	<rect id="Logo_10" rx="23.136364" width="315.227295" height="112.272728" transform="translate(0.863636 0.863636)" stroke="#2A3744" stroke-opacity="1.000000" stroke-width="1.727273"/>
</svg>
