<svg width="120.000000" height="39.924072" viewBox="0 0 120 39.9241" fill="none" xmlns="http://www.w3.org/2000/svg" xmlns:xlink="http://www.w3.org/1999/xlink">
	<desc>
			Created with Pixso.
	</desc>
	<defs/>
	<path id="Vector" d="M16.56 0.09C12.94 0.53 8.94 2.39 5.54 5.27C4.85 5.84 3.42 7.23 3.42 7.31C3.42 7.36 4.1 8.08 4.96 8.93L6.5 10.49L5.85 11.22C3.46 13.92 1.84 16.65 0.87 19.55C0.26 21.37 0 22.87 0 24.55C0 26.07 0.2 27.3 0.66 28.5L0.85 28.98L5.36 33.5C9.13 37.26 9.98 38.07 10.44 38.38C11.42 39.03 12.55 39.47 13.8 39.73C14.64 39.92 16.56 39.98 17.47 39.86C21.07 39.41 24.8 37.71 28.06 35C28.91 34.29 30.35 32.93 30.35 32.85C30.35 32.81 29.64 32.08 28.79 31.21L27.23 29.63L27.72 29.12C28.91 27.87 30.37 25.86 31.22 24.28C32.44 22.08 33.23 19.69 33.49 17.5C33.59 16.55 33.53 14.52 33.37 13.75C33.08 12.46 32.64 11.41 31.97 10.39C31.62 9.87 30.94 9.16 27.13 5.33L22.67 0.88L22.21 0.69C21.58 0.43 20.28 0.13 19.5 0.05C18.71 -0.04 17.47 -0.02 16.56 0.09ZM20.39 1.28C20.71 1.36 21.24 1.48 21.52 1.58C22.05 1.77 22.07 1.77 22.9 2.6C23.63 3.33 23.73 3.43 23.55 3.41C22.57 3.22 21.01 3.18 19.8 3.35C15.91 3.83 11.9 5.8 8.22 9.04C7.85 9.36 7.53 9.64 7.47 9.68C7.41 9.72 7.08 9.46 6.13 8.51L4.87 7.25L5.69 6.55C9.07 3.59 12.79 1.73 16.44 1.2C17.41 1.06 19.58 1.12 20.39 1.28ZM25.69 7.72C27.48 7.98 29.03 8.75 30.19 9.91C31.32 11.04 32.05 12.5 32.39 14.32C32.54 15.13 32.54 16.95 32.39 17.91C31.93 20.84 30.57 23.86 28.47 26.61C27.98 27.26 26.83 28.62 26.64 28.76C26.54 28.84 26.42 28.74 25.37 27.69C24.72 27.04 24.19 26.49 24.19 26.47C24.19 26.45 24.37 26.23 24.6 25.99C28.26 21.93 29.98 16.87 28.77 13.73C28.28 12.52 27.27 11.61 25.96 11.2C25.29 11 24.11 10.9 23.24 11C21.91 11.12 20.26 11.65 18.69 12.42C17.1 13.19 15.67 14.16 14.27 15.41L13.64 15.96L12.45 14.77L11.25 13.57L11.76 13.11C14.86 10.21 18.97 8.14 22.49 7.68C23.2 7.62 25.02 7.62 25.69 7.72ZM8.94 14.71C8.5 15.21 7.93 15.92 7.65 16.29C4.29 20.76 2.75 25.62 3.38 29.81L3.42 30.08L2.59 29.27C1.8 28.5 1.76 28.44 1.6 27.95C0.01 23.41 2 17.16 6.68 11.91L7.23 11.3L8.48 12.56L9.73 13.81L8.94 14.71ZM24.76 12.11L24.92 12.15L24.88 13C24.84 14.02 24.7 14.85 24.5 15.56C23.85 17.68 22.66 19.81 20.91 21.81L20.25 22.58L18.97 21.31L17.69 20.03L18.28 19.38C19.53 18.01 20.69 16.41 21.4 15.05C21.78 14.32 22.29 13.09 22.43 12.52C22.51 12.17 22.51 12.17 22.82 12.13C22.98 12.11 23.16 12.09 23.22 12.07C23.38 12.07 24.62 12.07 24.76 12.11ZM21.14 13C20.85 13.79 20.23 15.01 19.62 15.92C18.95 16.93 18.48 17.54 17.55 18.59L16.91 19.34L15.63 18.07L14.35 16.79L14.78 16.41C16.09 15.23 17.63 14.18 19.05 13.45C19.82 13.07 21.07 12.56 21.26 12.54C21.28 12.54 21.24 12.74 21.14 13ZM40.53 13.77C40.48 13.84 40.46 15.52 40.46 21.67C40.46 29.16 40.46 29.49 40.58 29.59C40.68 29.69 41 29.69 43.73 29.69C45.39 29.69 47.2 29.65 47.73 29.63C49.85 29.49 51.49 28.8 52.75 27.54C53.74 26.55 54.37 25.17 54.69 23.35C54.83 22.46 54.83 20.6 54.69 19.73C54.16 16.79 52.48 14.89 49.79 14.12C48.47 13.75 48.37 13.73 44.36 13.71C41.39 13.71 40.6 13.71 40.53 13.77ZM114.27 14.04C114.2 14.1 114.18 14.6 114.18 15.9L114.18 17.68L113.41 17.68C112.91 17.68 112.62 17.7 112.56 17.76C112.46 17.86 112.46 19.97 112.56 20.09C112.62 20.15 112.91 20.17 113.41 20.17L114.18 20.17L114.2 23.78C114.23 27.3 114.23 27.4 114.37 27.81C114.75 28.92 115.54 29.53 116.82 29.69C117.69 29.79 118.92 29.75 119.77 29.59L119.96 29.55L119.93 28.07L119.91 26.59L119.1 26.55C118.23 26.51 118.09 26.47 117.99 26.29C117.95 26.21 117.93 24.99 117.93 23.19L117.93 20.21L118.96 20.19L120 20.17L120 18.94L120 17.7L118.96 17.68L117.93 17.66L117.93 15.92C117.93 14.85 117.91 14.14 117.87 14.06C117.81 13.94 117.71 13.94 116.09 13.94C114.81 13.98 114.32 14 114.27 14.04ZM47.99 17.46C49.22 17.78 50.03 18.65 50.35 19.93C50.6 20.9 50.6 22.52 50.33 23.53C50.07 24.53 49.46 25.32 48.66 25.7C47.95 26.05 47.52 26.11 46.06 26.15L44.75 26.19L44.75 21.73L44.75 17.28L46.16 17.32C47.2 17.34 47.7 17.38 47.99 17.46ZM60.36 17.54C58.33 17.91 56.78 19.24 56.09 21.19C55.17 23.74 55.62 26.65 57.16 28.29C57.97 29.14 58.74 29.59 59.91 29.89C62.16 30.46 64.57 29.87 66.17 28.37C66.56 28.03 67.55 26.77 67.55 26.65C67.55 26.51 67.26 26.33 66.11 25.74C65.4 25.38 64.82 25.07 64.8 25.07C64.77 25.07 64.65 25.26 64.53 25.48C64.25 26.03 63.66 26.63 63.23 26.86C61.96 27.48 60.46 27.12 59.81 26.03C59.63 25.7 59.45 25.13 59.45 24.83L59.45 24.61L63.5 24.61C66.56 24.61 67.55 24.59 67.61 24.53C67.71 24.43 67.71 23.62 67.59 22.81C67.26 20.64 66.35 19.08 64.9 18.21C64.41 17.93 63.48 17.6 62.87 17.5C62.26 17.4 60.97 17.42 60.36 17.54ZM73.66 17.46C73.1 17.54 72.63 17.64 72.26 17.76C70.22 18.41 68.87 20.09 68.44 22.48C68.28 23.39 68.34 24.85 68.56 25.72C68.87 26.9 69.31 27.67 70.12 28.44C70.83 29.1 71.66 29.57 72.77 29.87C73.1 29.97 73.42 29.99 74.25 29.99C75.2 29.99 75.34 29.97 75.87 29.81C76.92 29.49 77.73 29 78.46 28.23C78.95 27.73 79.5 26.98 79.5 26.82C79.5 26.75 79.39 26.65 79.29 26.57C78.87 26.31 76.91 25.34 76.8 25.34C76.74 25.34 76.64 25.48 76.54 25.68C76.3 26.21 75.97 26.55 75.47 26.79C75.08 26.98 74.96 27.02 74.53 27C73.97 27 73.6 26.86 73.14 26.45C71.92 25.38 71.84 22.4 73 21.04C73.73 20.19 75.08 20.19 75.95 21.02C76.09 21.17 76.3 21.43 76.4 21.61C76.5 21.79 76.62 21.96 76.68 21.96C76.82 22 79.31 20.56 79.35 20.42C79.37 20.29 79.11 19.89 78.73 19.4C78.1 18.63 76.86 17.88 75.79 17.64C75.25 17.5 74.07 17.42 73.66 17.46ZM106.14 17.6C105.48 17.72 104.87 17.97 104.38 18.33L104 18.61L103.98 18.21L103.96 17.8L102.4 17.78C101.02 17.76 100.82 17.78 100.72 17.88C100.6 17.99 100.6 18.29 100.6 25.78C100.6 31.76 100.62 33.58 100.68 33.64C100.8 33.76 104.2 33.76 104.3 33.64C104.36 33.58 104.38 32.97 104.38 31.33L104.38 29.1L105.01 29.43C105.86 29.85 106.39 29.95 107.38 29.91C108.53 29.85 109.22 29.63 109.97 29.06C111.03 28.27 111.71 27.06 112.1 25.38C112.3 24.49 112.3 22.93 112.1 21.98C111.84 20.72 111.41 19.87 110.64 19.06C109.51 17.8 107.85 17.3 106.14 17.6ZM14.82 18.8C15.91 19.89 15.97 19.97 15.89 20.09C15.83 20.15 15.57 20.46 15.28 20.78C14.15 22.08 13.1 23.66 12.39 25.11C11.88 26.15 11.58 27 11.27 28.15C10.89 29.67 10.89 31.35 11.32 32.53C12.1 34.75 14.19 35.81 17.1 35.46C19.92 35.12 23.16 33.5 25.94 31.05L26.52 30.52L27.72 31.72L28.91 32.91L28.41 33.38C25.82 35.79 22.35 37.75 19.35 38.48C18.14 38.78 17.29 38.88 16.14 38.88C14.6 38.88 13.46 38.68 12.26 38.15C10.73 37.49 9.31 36.17 8.58 34.71C7.67 32.91 7.41 30.68 7.81 28.27C8.38 24.91 10.26 21.31 13.03 18.21C13.32 17.88 13.58 17.62 13.6 17.62C13.62 17.62 14.17 18.15 14.82 18.8ZM86.87 17.7C86.08 17.82 85.08 18.19 84.44 18.61L84.23 18.76L84.23 18.33C84.23 18.09 84.19 17.88 84.15 17.82C84.09 17.76 83.63 17.74 82.43 17.74C80.93 17.74 80.77 17.74 80.69 17.86C80.59 17.97 80.59 18.47 80.59 23.74C80.59 29.23 80.59 29.49 80.71 29.59C80.81 29.69 81.03 29.69 82.49 29.69C83.79 29.69 84.17 29.67 84.23 29.61C84.28 29.55 84.32 28.35 84.32 25.9C84.33 22.5 84.33 22.26 84.46 22.04C84.7 21.55 85.12 21.35 86.36 21.15C86.83 21.06 87.29 20.98 87.39 20.96L87.58 20.92L87.58 19.34C87.58 17.76 87.55 17.58 87.35 17.62C87.27 17.64 87.07 17.66 86.87 17.7ZM88.53 17.84C88.49 17.91 88.47 18.01 88.49 18.11C88.51 18.19 89.05 19.97 89.7 22.04C92.29 30.38 92.15 29.89 91.97 30.22C91.81 30.54 91.52 30.6 90.51 30.6C89.88 30.6 89.56 30.62 89.52 30.68C89.46 30.74 89.44 31.15 89.44 32.14C89.44 33.13 89.46 33.54 89.52 33.6C89.62 33.7 92.19 33.7 92.86 33.62C93.98 33.46 94.89 32.67 95.41 31.41C95.53 31.15 96.57 28.01 97.72 24.45C99.48 19.06 99.83 17.95 99.75 17.86C99.69 17.78 99.38 17.76 97.78 17.76L95.9 17.76L95.84 18.05C95.8 18.21 95.41 19.89 94.97 21.81C94.52 23.74 94.16 25.34 94.12 25.36C94.1 25.38 93.67 23.68 93.21 21.59L92.33 17.76L90.45 17.76C88.89 17.76 88.59 17.76 88.53 17.84ZM62.67 20.38C63.28 20.66 63.68 21.21 63.8 21.87L63.84 22.12L61.67 22.12L59.51 22.12L59.55 21.91C59.63 21.55 59.98 20.96 60.26 20.72C60.75 20.29 61.17 20.15 61.84 20.19C62.16 20.21 62.41 20.27 62.67 20.38ZM107.36 20.48C107.93 20.78 108.35 21.41 108.55 22.26C108.69 22.89 108.69 24.39 108.53 25.01C108.39 25.56 108.11 26.13 107.8 26.51C107.32 27.1 106.37 27.26 105.6 26.88C104.71 26.43 104.28 25.44 104.28 23.78C104.28 22.24 104.69 21.15 105.44 20.6C106.02 20.19 106.73 20.15 107.36 20.48ZM18.79 23.76C17.13 25.32 15 26.71 13.24 27.42C12.87 27.56 12.55 27.69 12.53 27.69C12.51 27.69 12.59 27.46 12.69 27.18C13.46 25.05 14.8 22.89 16.4 21.17L16.78 20.76L18.06 22.02L19.33 23.27L18.79 23.76ZM21.34 25.34L22.57 26.57L22.19 26.94C20.16 28.84 17.05 30.56 14.84 31.03C14.29 31.15 13.08 31.27 12.49 31.27L12.1 31.27L12.1 30.34C12.1 29.83 12.12 29.29 12.14 29.16L12.19 28.92L12.98 28.66C14.98 28.01 17.53 26.41 19.41 24.63C19.72 24.34 20 24.1 20.04 24.1C20.08 24.1 20.67 24.65 21.34 25.34Z" fill="#1D1D1B" fill-opacity="1.000000" fill-rule="evenodd"/>
</svg>
