<svg width="28.000000" height="28.000000" viewBox="0 0 28 28" fill="none" xmlns="http://www.w3.org/2000/svg" xmlns:xlink="http://www.w3.org/1999/xlink">
	<desc>
			Created with Pixso.
	</desc>
	<defs/>
	<rect id="Frame 5617" rx="0.000000" width="27.000000" height="27.000000" transform="translate(0.500000 0.500000)" fill="#FFFFFF" fill-opacity="0"/>
	<path id="Vector" d="M10.12 4.06L9.91 4.08C9.91 4.08 6.82 4.42 4.56 6.23L4.53 6.23L4.5 6.26C4 6.73 3.77 7.3 3.42 8.14C3.08 8.98 2.71 10.05 2.38 11.23C1.73 13.6 1.19 16.46 1.19 19.09L1.19 19.31L1.3 19.53C2.12 20.97 3.57 21.88 4.92 22.51C6.27 23.14 7.42 23.48 8.23 23.51C8.56 23.52 8.86 23.36 9.03 23.08L9.03 23.07L10 21.36C11.02 21.59 12.2 21.75 13.56 21.75C14.91 21.75 16.09 21.59 17.12 21.36L18.08 23.07L18.09 23.08C18.25 23.36 18.56 23.52 18.88 23.51C19.68 23.48 20.85 23.14 22.19 22.51C23.54 21.88 24.99 20.97 25.81 19.53L25.92 19.31L25.92 19.09C25.92 16.46 25.39 13.6 24.73 11.23C24.41 10.04 24.03 8.98 23.69 8.14C23.34 7.3 23.12 6.73 22.61 6.26L22.58 6.23L22.55 6.23C20.29 4.41 17.2 4.08 17.2 4.08L17.02 4.06C16.66 4.02 16.32 4.27 16.26 4.64C16.26 4.64 16 6.25 15.84 6.99C14.84 6.85 14.03 6.82 13.55 6.82C13.08 6.82 12.26 6.85 11.26 6.98C11.1 6.25 10.85 4.63 10.85 4.63C10.8 4.28 10.48 4.02 10.12 4.06ZM9.39 6.01C9.42 6.14 9.64 7.2 9.67 7.3C8.79 7.52 7.75 7.84 6.8 8.3C6.36 8.51 6.23 9.06 6.49 9.47C6.75 9.88 7.29 10 7.73 9.79C9.93 8.75 12.65 8.58 13.55 8.58C14.46 8.58 17.17 8.75 19.38 9.79C19.82 10 20.35 9.88 20.61 9.47C20.87 9.06 20.75 8.51 20.31 8.29C19.36 7.84 18.32 7.52 17.43 7.3C17.46 7.2 17.68 6.14 17.72 6.01C18.54 6.18 20.11 6.56 21.42 7.59C21.41 7.59 21.75 8.1 22.05 8.83C22.36 9.58 22.71 10.57 23.01 11.69C23.61 13.85 24.08 16.47 24.12 18.79C23.57 19.64 22.53 20.4 21.44 20.91C20.5 21.35 19.74 21.52 19.29 21.6L18.85 20.86C19.11 20.76 19.37 20.65 19.6 20.55C20.17 20.3 20.64 20.04 20.98 19.82C21.39 19.56 21.43 19.02 21.12 18.66C20.8 18.29 20.22 18.24 19.8 18.49C19.56 18.63 19.25 18.79 18.88 18.95C17.72 19.47 15.95 19.97 13.55 19.97C11.15 19.97 9.39 19.46 8.23 18.95C7.85 18.79 7.55 18.63 7.3 18.49C6.88 18.25 6.31 18.29 5.99 18.66C5.67 19.02 5.71 19.56 6.12 19.82C6.46 20.04 6.93 20.3 7.51 20.55C7.73 20.65 7.99 20.76 8.25 20.86L7.81 21.6C7.36 21.52 6.61 21.35 5.66 20.91C4.57 20.4 3.54 19.64 2.98 18.79C3.02 16.47 3.49 13.85 4.09 11.69C4.4 10.57 4.75 9.58 5.06 8.83C5.36 8.1 5.7 7.59 5.69 7.59C6.99 6.56 8.56 6.18 9.39 6.01ZM10.46 12.03C9.78 12.03 9.18 12.42 8.81 12.91C8.44 13.4 8.26 14.01 8.26 14.68C8.26 15.34 8.44 15.95 8.81 16.44C9.17 16.94 9.78 17.33 10.46 17.33C11.15 17.33 11.75 16.94 12.12 16.44C12.49 15.95 12.67 15.34 12.67 14.68C12.67 14.01 12.49 13.4 12.12 12.91C11.75 12.42 11.14 12.03 10.46 12.03ZM16.64 12.03C15.96 12.03 15.36 12.42 14.99 12.91C14.62 13.4 14.44 14.01 14.44 14.68C14.44 15.34 14.62 15.95 14.99 16.44C15.35 16.94 15.96 17.33 16.64 17.33C17.33 17.33 17.92 16.94 18.3 16.44C18.66 15.95 18.85 15.34 18.85 14.68C18.85 14.01 18.66 13.4 18.3 12.91C17.92 12.42 17.32 12.03 16.64 12.03ZM10.46 13.79C10.51 13.79 10.57 13.81 10.69 13.96C10.8 14.11 10.91 14.36 10.91 14.68C10.91 14.99 10.8 15.25 10.69 15.4C10.57 15.55 10.51 15.56 10.46 15.56C10.41 15.56 10.35 15.54 10.24 15.4C10.13 15.25 10.02 14.99 10.02 14.68C10.02 14.37 10.13 14.11 10.24 13.96C10.35 13.81 10.41 13.79 10.46 13.79ZM16.64 13.79C16.69 13.79 16.75 13.81 16.86 13.96C16.98 14.11 17.08 14.36 17.08 14.68C17.08 14.99 16.98 15.25 16.86 15.4C16.75 15.55 16.69 15.56 16.64 15.56C16.59 15.56 16.53 15.54 16.42 15.4C16.31 15.25 16.2 14.99 16.2 14.68C16.2 14.37 16.31 14.11 16.42 13.96C16.53 13.81 16.59 13.79 16.64 13.79Z" fill="#9277FF" fill-opacity="1.000000" fill-rule="nonzero"/>
</svg>
