<svg width="150.000000" height="150.000000" viewBox="0 0 150 150" fill="none" xmlns="http://www.w3.org/2000/svg" xmlns:xlink="http://www.w3.org/1999/xlink">
	<desc>
			Created with Pixso.
	</desc>
	<defs>
		<filter id="filter_8758_23288_dd" x="0.000000" y="0.000000" width="150.000000" height="150.000000" filterUnits="userSpaceOnUse" color-interpolation-filters="sRGB">
			<feFlood flood-opacity="0" result="BackgroundImageFix"/>
			<feColorMatrix in="SourceAlpha" type="matrix" values="0 0 0 0 0 0 0 0 0 0 0 0 0 0 0 0 0 0 127 0" result="hardAlpha"/>
			<feOffset dx="0" dy="0"/>
			<feGaussianBlur stdDeviation="15.6667"/>
			<feComposite in2="hardAlpha" operator="out" k2="-1" k3="1"/>
			<feColorMatrix type="matrix" values="0 0 0 0 0.38431 0 0 0 0 0.49412 0 0 0 0 0.91765 0 0 0 0.3 0"/>
			<feBlend mode="normal" in2="BackgroundImageFix" result="effect_dropShadow_1"/>
			<feBlend mode="normal" in="SourceGraphic" in2="effect_dropShadow_1" result="shape"/>
		</filter>
		<linearGradient x1="75.000000" y1="47.000000" x2="75.000000" y2="103.000000" id="paint_linear_13_121_0" gradientUnits="userSpaceOnUse">
			<stop stop-color="#7993F9"/>
			<stop offset="1.000000" stop-color="#627EEA"/>
		</linearGradient>
	</defs>
	<g filter="url(#filter_8758_23288_dd)">
		<rect id="Icon_ethereum" rx="0.000000" width="55.500000" height="55.500000" transform="translate(47.250000 47.250000)" fill="#FFFFFF" fill-opacity="0"/>
		<circle id="Ethereum (ETH)" cx="75.000000" cy="75.000000" r="28.000000" fill="url(#paint_linear_13_121_0)" fill-opacity="1.000000"/>
		<path id="Ethereum (ETH)" d="M74.92 58.2L74.69 58.95L74.69 80.9L74.92 81.13L85.11 75.1L74.92 58.2Z" fill="#10151A" fill-opacity="1.000000" fill-rule="nonzero"/>
		<path id="Ethereum (ETH)" d="M74.92 58.2L64.73 75.1L74.92 81.13L74.92 70.47L74.92 58.2Z" fill="#10151A" fill-opacity="1.000000" fill-rule="nonzero"/>
		<path id="Ethereum (ETH)" d="M74.92 83.06L74.79 83.21L74.79 91.03L74.92 91.4L85.11 77.04L74.92 83.06Z" fill="#10151A" fill-opacity="1.000000" fill-rule="nonzero"/>
		<path id="Ethereum (ETH)" d="M74.92 91.4L74.92 83.06L64.73 77.04L74.92 91.4Z" fill="#10151A" fill-opacity="1.000000" fill-rule="nonzero"/>
		<path id="Ethereum (ETH)" d="M74.92 81.13L85.11 75.1L74.92 70.47L74.92 81.13Z" fill="#10151A" fill-opacity="1.000000" fill-rule="nonzero"/>
		<path id="Ethereum (ETH)" d="M64.73 75.1L74.92 81.13L74.92 70.47L64.73 75.1Z" fill="#10151A" fill-opacity="1.000000" fill-rule="nonzero"/>
	</g>
</svg>
