<svg width="217.000000" height="132.000000" viewBox="0 0 217 132" fill="none" xmlns="http://www.w3.org/2000/svg" xmlns:xlink="http://www.w3.org/1999/xlink">
	<desc>
			Created with Pixso.
	</desc>
	<defs/>
	<rect id="Logo_4" rx="29.000000" width="215.000000" height="130.000000" transform="translate(1.000000 1.000000)" fill="#121E28" fill-opacity="1.000000"/>
	<path id="Vector" d="M50.46 95.01L54.16 104.86L56.05 104.86L59.83 94.76L57.82 94.76L55.17 102.37L52.5 94.66L50.46 95.01ZM68.03 94.76L68.03 104.82L74.02 104.82L74.02 103.19L69.94 103.19L69.94 100.42L73.23 100.42L72.97 98.76L69.94 98.76L69.94 96.39L73.88 96.39L73.88 94.76L68.03 94.76ZM88.76 94.76L88.76 101.35L84.24 94.76L82.42 94.76L82.42 104.82L84.21 104.82L84.21 97.9L88.95 104.82L90.55 104.82L90.55 94.76L88.76 94.76ZM98.87 94.76L98.87 96.44L101.86 96.44L101.86 104.82L103.8 104.82L103.8 96.44L106.96 96.44L106.69 94.76L98.87 94.76ZM123.18 100.88L123.18 94.76L121.25 94.76L121.25 100.87C121.25 102.42 120.53 103.32 119.1 103.32C117.69 103.32 116.99 102.36 116.99 100.83L116.99 94.76L115.07 94.76L115.07 100.93C115.07 103.55 116.66 105 119.09 105C121.52 105 123.18 103.55 123.18 100.88L123.18 100.88ZM136.74 100.61C137.98 100.16 138.75 99.24 138.75 97.78C138.75 95.82 137.39 94.76 135.15 94.76L132.03 94.76L132.03 104.82L133.96 104.82L133.96 100.97L134.83 100.97L137.45 104.92L139.42 104.56L136.74 100.61ZM136.85 97.88C136.85 98.93 136.11 99.5 134.92 99.5L133.94 99.5L133.94 96.31L135 96.31C136.21 96.31 136.85 96.87 136.85 97.88L136.85 97.88ZM153.5 104.82L153.5 103.19L149.42 103.19L149.42 100.42L152.71 100.42L152.45 98.76L149.42 98.76L149.42 96.39L153.35 96.39L153.35 94.76L147.51 94.76L147.51 104.82L153.5 104.82ZM168.02 101.95C168.02 100.39 167.26 99.67 165.19 98.83C163.79 98.25 163.47 97.94 163.47 97.3C163.47 96.68 163.89 96.22 164.85 96.22C165.64 96.22 166.5 96.52 167.23 97L167.52 95.26C166.79 94.88 166.01 94.65 164.87 94.65C162.99 94.65 161.62 95.68 161.62 97.46C161.62 99.02 162.41 99.66 164.36 100.46C165.82 101.09 166.16 101.39 166.16 102.14C166.16 102.94 165.55 103.36 164.66 103.36C163.66 103.36 162.61 102.97 161.77 102.47L161.47 104.24C162.46 104.7 163.54 104.94 164.63 104.94C166.57 104.94 168.02 103.92 168.02 101.95L168.02 101.95ZM44.24 85.88L64.36 85.88L64.36 84.89C60.22 84.8 58.81 84.23 58.81 81.74L58.81 50.6L73.88 50.6L73.88 81.74C73.88 84.23 72.39 84.8 68.75 84.89L68.75 85.88L88.62 85.88L88.62 84.89C83.57 84.8 82.58 84.23 82.58 81.74L82.58 47.53L71.32 48.03L58.81 48.03L58.81 40.32C58.81 33.95 59.81 31.38 61.55 29.64C63.03 28.23 65.11 27.49 67.84 27.49C71.32 27.49 73.97 29.23 74.96 31.13C73.55 32.13 72.56 33.86 72.56 35.52C72.56 39.08 75.13 40.49 77.78 40.49C80.67 40.49 82.66 38.34 82.66 35.27C82.66 31.05 78.44 26 67.76 26C62.29 26 57.82 27.4 54.59 30.63C51.69 33.62 50.12 37.92 50.12 44.96L50.12 47.78L43 49.6L43 50.68L50.12 50.68L50.12 81.74C50.12 84.23 48.96 84.8 44.24 84.89L44.24 85.88L44.24 85.88ZM106.34 70.47L110.07 66.75L119.25 80.08C121.24 82.98 121 84.47 116.69 84.89L116.69 85.88L136.32 85.88L136.32 84.89C132.51 84.47 131.68 83.81 128.12 78.76L115.69 61.2L120.17 56.72C125.47 51.59 128.45 49.68 133.25 48.69L133.25 47.7L115.69 47.7L115.69 48.69C121.49 49.77 122.07 52.17 118.51 55.9L106.34 68.4L106.34 26.49L91.01 26.99L91.01 27.98C96.81 28.15 97.64 29.39 97.64 32.21L97.64 81.74C97.64 84.23 96.57 84.8 91.76 84.89L91.76 85.88L110.73 85.88L110.73 84.89C107.5 84.8 106.34 84.23 106.34 81.74L106.34 70.47ZM152.47 82.57C148.25 82.57 146.34 79.75 146.34 75.78C146.34 70.14 148.75 67.74 159.76 65.59L159.76 77.93C158.1 80.25 155.45 82.57 152.47 82.57L152.47 82.57ZM147.67 86.38C152.8 86.38 156.69 83.48 159.84 79.84L160.17 79.84C160.67 84.31 162.41 86.21 167.05 86.21C169.94 86.21 172.1 85.22 175 83.4L174.66 82.57C169.86 84.56 168.37 82.82 168.37 78.76L168.37 59.46C168.37 50.93 163.4 47.28 154.05 47.28C144.69 47.28 138.64 50.85 138.64 55.73C138.64 58.47 140.55 60.62 143.44 60.62C146.67 60.62 148.42 58.63 148.42 55.73C148.42 54.08 147.59 52.59 146.18 51.26C147.67 49.77 150.23 48.86 153.05 48.86C157.94 48.86 159.76 51.84 159.76 58.05L159.76 64.02C157.85 64.93 148.17 65.42 142.04 68.82C138.56 70.72 137.07 73.95 137.07 77.19C137.07 81.82 140.3 86.38 147.67 86.38Z" fill="#FFFFFF" fill-opacity="1.000000" fill-rule="evenodd"/>
	<rect id="Logo_4" rx="29.000000" width="215.000000" height="130.000000" transform="translate(1.000000 1.000000)" stroke="#2A3744" stroke-opacity="1.000000" stroke-width="2.000000"/>
</svg>
