<svg width="150.000000" height="150.000000" viewBox="0 0 150 150" fill="none" xmlns="http://www.w3.org/2000/svg" xmlns:xlink="http://www.w3.org/1999/xlink">
	<desc>
			Created with Pixso.
	</desc>
	<defs>
		<filter id="filter_8758_23290_dd" x="0.000000" y="0.000000" width="150.000000" height="150.000000" filterUnits="userSpaceOnUse" color-interpolation-filters="sRGB">
			<feFlood flood-opacity="0" result="BackgroundImageFix"/>
			<feColorMatrix in="SourceAlpha" type="matrix" values="0 0 0 0 0 0 0 0 0 0 0 0 0 0 0 0 0 0 127 0" result="hardAlpha"/>
			<feOffset dx="0" dy="4"/>
			<feGaussianBlur stdDeviation="15.6667"/>
			<feComposite in2="hardAlpha" operator="out" k2="-1" k3="1"/>
			<feColorMatrix type="matrix" values="0 0 0 0 0 0 0 0 0 0.54902 0 0 0 0 0.45098 0 0 0 0.3 0"/>
			<feBlend mode="normal" in2="BackgroundImageFix" result="effect_dropShadow_1"/>
			<feBlend mode="normal" in="SourceGraphic" in2="effect_dropShadow_1" result="shape"/>
		</filter>
	</defs>
	<g filter="url(#filter_8758_23290_dd)">
		<rect id="Frame 5608" rx="27.500000" width="55.000000" height="55.000000" transform="translate(47.500000 43.500000)" fill="#FFFFFF" fill-opacity="0"/>
		<rect id="Rectangle 39400" x="62.000000" y="60.000000" width="37.000000" height="22.000000" fill="#10151A" fill-opacity="1.000000"/>
		<path id="Vector" d="M75 43C59.56 43 47 55.51 47 71C47 86.43 59.51 99 75 99C90.48 99 103 86.48 103 71C103 55.56 90.43 43 75 43ZM95.5 72.5L82.5 72.5C81.62 76.79 77.48 79.57 73.19 78.69C68.91 77.81 66.13 73.67 67.01 69.39C67.89 65.1 72.03 62.33 76.31 63.2C79.57 63.84 82.06 66.47 82.59 69.78L95.5 69.78C96.28 69.78 96.86 70.41 96.86 71.14C96.86 71.92 96.23 72.5 95.5 72.5Z" fill="#008C73" fill-opacity="1.000000" fill-rule="nonzero"/>
	</g>
</svg>
