<svg width="193.000000" height="32.031738" viewBox="0 0 193 32.0317" fill="none" xmlns="http://www.w3.org/2000/svg" xmlns:xlink="http://www.w3.org/1999/xlink">
	<desc>
			Created with Pixso.
	</desc>
	<defs>
		<linearGradient x1="20.484541" y1="0.000000" x2="20.484541" y2="22.238390" id="paint_linear_8758_23542_0" gradientUnits="userSpaceOnUse">
			<stop stop-color="#FFC803"/>
			<stop offset="1.000000" stop-color="#FFA903"/>
		</linearGradient>
		<linearGradient x1="34.562119" y1="6.221680" x2="34.562119" y2="31.372225" id="paint_linear_8758_23543_0" gradientUnits="userSpaceOnUse">
			<stop stop-color="#FF7421"/>
			<stop offset="1.000000" stop-color="#EC5901"/>
		</linearGradient>
	</defs>
	<rect rx="0.000000" width="192.029343" height="31.060976" transform="translate(0.485328 0.485328)" fill="#FFFFFF" fill-opacity="0"/>
	<path d="M71.53 9.42C75.91 9.42 78.85 11.16 78.85 14.58L78.85 15.39L74.92 15.39L74.92 14.58C74.92 13.2 73.64 12.52 71.53 12.52L71.09 12.52C68.93 12.52 67.7 13.15 67.7 14.09L67.7 14.33C67.7 15.46 68.68 15.78 72.66 16.45C77.16 17.26 79.15 18.58 79.15 21.36L79.15 21.61C79.15 24.38 76.64 26.37 71.6 26.37L71.14 26.37C66.05 26.37 63.47 24.36 63.47 20.94L63.47 20.18L67.41 20.18L67.41 20.94C67.41 22.69 68.76 23.25 71.16 23.25L71.6 23.25C73.89 23.25 75.17 22.71 75.17 21.66L75.17 21.44C75.17 20.38 73.99 19.91 70.03 19.27C65.88 18.61 63.72 17.36 63.72 14.53L63.72 14.21C63.72 11.16 66.52 9.42 71.09 9.42L71.53 9.42Z" fill="#FFFFFF" fill-opacity="1.000000" fill-rule="nonzero"/>
	<path d="M91.17 26.13L91.17 24.48L90.65 24.48C89.89 25.64 88.49 26.37 86.52 26.37L86.1 26.37C83.06 26.37 81.34 24.73 81.34 21.14L81.34 13.52L85.27 13.52L85.27 20.43C85.27 22.17 86.18 23.13 88 23.13L88.42 23.13C90.23 23.13 91.17 22.17 91.17 20.43L91.17 13.52L95.1 13.52L95.1 26.13L91.17 26.13Z" fill="#FFFFFF" fill-opacity="1.000000" fill-rule="nonzero"/>
	<path d="M101.88 13.52L101.88 15.07L102.4 15.07C103.3 13.94 104.66 13.28 106.55 13.28L106.99 13.28C110.19 13.28 112.52 15.07 112.52 19.1L112.52 20.55C112.52 24.58 110.19 26.37 106.99 26.37L106.55 26.37C104.61 26.37 103.28 25.69 102.4 24.53L101.88 24.53L101.88 32.03L97.95 32.03L97.95 13.52L101.88 13.52ZM101.88 19.05L101.88 20.57C101.88 22.42 103.13 23.3 105 23.3L105.44 23.3C107.34 23.3 108.59 22.39 108.59 20.57L108.59 19.05C108.59 17.26 107.34 16.35 105.44 16.35L105 16.35C103.13 16.35 101.88 17.23 101.88 19.05Z" fill="#FFFFFF" fill-opacity="1.000000" fill-rule="nonzero"/>
	<path d="M122.06 13.28C126.06 13.28 128.94 15.22 128.94 19.15L128.94 20.75L118.37 20.75L118.37 20.89C118.37 22.71 119.53 23.62 121.59 23.62L122.06 23.62C123.78 23.62 124.86 23.13 125.2 21.93L128.82 21.93C128.47 24.53 126.31 26.37 122.06 26.37L121.59 26.37C117.59 26.37 114.66 24.51 114.66 20.58L114.66 19.15C114.66 15.22 117.56 13.28 121.59 13.28L122.06 13.28ZM118.39 18.27L125.2 18.27C125.05 16.82 123.85 16.03 122.03 16.03L121.57 16.03C119.62 16.03 118.54 16.82 118.39 18.27Z" fill="#FFFFFF" fill-opacity="1.000000" fill-rule="nonzero"/>
	<path d="M135.43 13.52L135.43 14.97L135.92 14.97C136.66 13.87 137.78 13.28 139.51 13.28C142.21 13.28 143.64 14.63 143.64 18.17L143.64 19L140 19L140 18.49C140 17.18 139.26 16.5 137.71 16.5C136.16 16.5 135.43 17.18 135.43 18.49L135.43 26.13L131.5 26.13L131.5 13.52L135.43 13.52Z" fill="#FFFFFF" fill-opacity="1.000000" fill-rule="nonzero"/>
	<path d="M159.85 7.94L159.85 26.13L155.92 26.13L155.92 24.53L155.38 24.53C154.49 25.69 153.19 26.37 151.25 26.37L150.78 26.37C147.59 26.37 145.28 24.61 145.28 20.55L145.28 19.1C145.28 15.07 147.59 13.28 150.78 13.28L151.25 13.28C153.14 13.28 154.47 13.94 155.38 15.07L155.92 15.07L155.92 7.94L159.85 7.94ZM149.21 19.05L149.21 20.58C149.21 22.37 150.46 23.3 152.33 23.3L152.77 23.3C154.66 23.3 155.92 22.39 155.92 20.58L155.92 19.05C155.92 17.26 154.66 16.35 152.77 16.35L152.33 16.35C150.46 16.35 149.21 17.28 149.21 19.05Z" fill="#FFFFFF" fill-opacity="1.000000" fill-rule="nonzero"/>
	<path d="M169.53 13.28C173.98 13.28 175.99 14.97 175.99 17.85L175.99 26.13L172.06 26.13L172.06 24.53L171.47 24.53C170.49 25.81 169.09 26.37 166.95 26.37C164.3 26.37 162.38 25.2 162.38 22.57C162.38 20.01 164.07 18.51 168.01 18.51L172.06 18.51L172.06 17.85C172.06 16.59 171.2 16 169.5 16L169.06 16C167.44 16 166.51 16.57 166.51 17.8L162.65 17.8C162.65 14.95 164.84 13.28 169.06 13.28L169.53 13.28ZM166.26 22.17C166.26 23.01 166.95 23.52 168.6 23.52C170.24 23.52 172.06 22.93 172.06 21.14L172.06 20.77L168.55 20.77C166.9 20.77 166.26 21.24 166.26 22.17Z" fill="#FFFFFF" fill-opacity="1.000000" fill-rule="nonzero"/>
	<path d="M185.94 13.28C190.05 13.28 193 15.24 193 19.1L193 20.55C193 24.46 190.05 26.37 185.94 26.37L185.48 26.37C181.35 26.37 178.43 24.43 178.43 20.55L178.43 19.1C178.43 15.24 181.35 13.28 185.48 13.28L185.94 13.28ZM182.36 19.05L182.36 20.57C182.36 22.25 183.32 23.3 185.48 23.3L185.94 23.3C188.11 23.3 189.07 22.25 189.07 20.57L189.07 19.05C189.07 17.38 188.11 16.35 185.94 16.35L185.48 16.35C183.32 16.35 182.36 17.38 182.36 19.05Z" fill="#FFFFFF" fill-opacity="1.000000" fill-rule="nonzero"/>
	<path d="M37.96 7.22L40.92 19.58C41.25 20.93 40.22 22.23 38.83 22.23L12.14 22.23C9.6 22.23 7.32 20.65 6.45 18.26L6.21 17.6C6.08 17.24 6.34 16.87 6.71 16.87L24.14 16.87C24.35 16.87 24.52 16.7 24.52 16.5C24.52 14.95 23.26 13.7 21.71 13.7L9.01 13.7C6.47 13.7 4.2 12.11 3.32 9.72L3.1 9.12C2.98 8.77 3.24 8.4 3.61 8.4L20.17 8.4C20.38 8.4 20.55 8.23 20.55 8.03C20.55 6.48 19.29 5.22 17.74 5.22L5.91 5.22C3.37 5.22 1.1 3.64 0.22 1.25L0.03 0.72C-0.1 0.37 0.16 0 0.53 0L28.8 0C33.16 0 36.95 2.98 37.96 7.22Z" fill="url(#paint_linear_8758_23542_0)" fill-opacity="1.000000" fill-rule="nonzero"/>
	<path d="M48.44 10.9L52.59 28.73C52.91 30.08 51.88 31.37 50.5 31.37L22.66 31.37C20.02 31.37 17.69 29.66 16.89 27.15L16.6 26.27C16.44 25.74 16.83 25.21 17.37 25.21L42.79 25.21C44.19 25.21 45.21 23.91 44.89 22.55L41.17 7.21C41.05 6.71 41.44 6.22 41.96 6.22L42.54 6.22C45.36 6.22 47.8 8.16 48.44 10.9Z" fill="url(#paint_linear_8758_23543_0)" fill-opacity="1.000000" fill-rule="nonzero"/>
</svg>
