<svg width="150.000000" height="150.000000" viewBox="0 0 150 150" fill="none" xmlns="http://www.w3.org/2000/svg" xmlns:xlink="http://www.w3.org/1999/xlink">
	<desc>
			Created with Pixso.
	</desc>
	<defs>
		<filter id="filter_8758_23283_dd" x="0.000000" y="0.000000" width="150.000000" height="150.000000" filterUnits="userSpaceOnUse" color-interpolation-filters="sRGB">
			<feFlood flood-opacity="0" result="BackgroundImageFix"/>
			<feColorMatrix in="SourceAlpha" type="matrix" values="0 0 0 0 0 0 0 0 0 0 0 0 0 0 0 0 0 0 127 0" result="hardAlpha"/>
			<feOffset dx="0" dy="0"/>
			<feGaussianBlur stdDeviation="15.6667"/>
			<feComposite in2="hardAlpha" operator="out" k2="-1" k3="1"/>
			<feColorMatrix type="matrix" values="0 0 0 0 0.12549 0 0 0 0 0.50588 0 0 0 0 0.88627 0 0 0 0.3 0"/>
			<feBlend mode="normal" in2="BackgroundImageFix" result="effect_dropShadow_1"/>
			<feBlend mode="normal" in="SourceGraphic" in2="effect_dropShadow_1" result="shape"/>
		</filter>
		<clipPath id="clip8758_23283">
			<rect id="icon_opensea" rx="27.599442" width="55.198883" height="55.198883" transform="translate(47.400558 47.400558)" fill="white" fill-opacity="0"/>
		</clipPath>
		<linearGradient x1="75.000000" y1="47.000000" x2="75.000000" y2="103.000000" id="paint_linear_8758_23284_0" gradientUnits="userSpaceOnUse">
			<stop stop-color="#3E99F3"/>
			<stop offset="1.000000" stop-color="#2081E2"/>
		</linearGradient>
	</defs>
	<g filter="url(#filter_8758_23283_dd)">
		<rect id="icon_opensea" rx="27.599442" width="55.198883" height="55.198883" transform="translate(47.400558 47.400558)" fill="#FFFFFF" fill-opacity="0"/>
		<g clip-path="url(#clip8758_23283)">
			<path id="Vector" d="M103 75C103 90.46 90.46 103 75 103C59.53 103 47 90.46 47 75C47 59.53 59.53 47 75 47C90.46 47 103 59.53 103 75Z" fill="url(#paint_linear_8758_23284_0)" fill-opacity="1.000000" fill-rule="nonzero"/>
			<path id="Vector" d="M60.81 75.94L60.93 75.75L68.21 64.35C68.32 64.18 68.57 64.2 68.65 64.38C69.87 67.11 70.92 70.5 70.42 72.61C70.21 73.48 69.64 74.66 68.99 75.75C68.91 75.9 68.82 76.06 68.72 76.21C68.67 76.28 68.6 76.32 68.51 76.32L61.02 76.32C60.82 76.32 60.7 76.1 60.81 75.94Z" fill="#10151A" fill-opacity="1.000000" fill-rule="nonzero"/>
			<path id="Vector" d="M93.28 78.05L93.28 79.86C93.28 79.96 93.21 80.05 93.12 80.09C92.56 80.33 90.63 81.22 89.83 82.34C87.78 85.19 86.21 89.26 82.71 89.26L68.12 89.26C62.95 89.26 58.76 85.06 58.76 79.87L58.76 79.7C58.76 79.56 58.87 79.45 59.01 79.45L67.14 79.45C67.3 79.45 67.42 79.6 67.41 79.76C67.35 80.29 67.45 80.83 67.7 81.32C68.18 82.3 69.18 82.92 70.26 82.92L74.29 82.92L74.29 79.77L70.31 79.77C70.1 79.77 69.98 79.53 70.1 79.37C70.15 79.3 70.19 79.23 70.25 79.16C70.62 78.62 71.16 77.79 71.7 76.84C72.06 76.2 72.42 75.52 72.7 74.84C72.76 74.71 72.8 74.59 72.85 74.46C72.93 74.24 73.01 74.04 73.07 73.84C73.12 73.66 73.17 73.48 73.21 73.31C73.35 72.73 73.41 72.12 73.41 71.48C73.41 71.23 73.4 70.97 73.37 70.71C73.36 70.44 73.33 70.17 73.29 69.89C73.27 69.65 73.23 69.41 73.18 69.16C73.12 68.8 73.04 68.44 72.95 68.07L72.92 67.93C72.85 67.68 72.79 67.44 72.71 67.19C72.48 66.41 72.22 65.64 71.95 64.93C71.85 64.64 71.73 64.37 71.62 64.1C71.44 63.68 71.27 63.31 71.12 62.96C71.03 62.8 70.96 62.65 70.9 62.5C70.82 62.33 70.74 62.16 70.66 62C70.6 61.87 70.53 61.76 70.49 61.64L70 60.74C69.93 60.61 70.04 60.46 70.18 60.5L73.26 61.34L73.26 61.34C73.27 61.34 73.27 61.34 73.28 61.34L73.68 61.45L74.13 61.58L74.29 61.62L74.29 59.79C74.29 58.91 75 58.2 75.87 58.2C76.31 58.2 76.71 58.37 76.99 58.66C77.28 58.95 77.46 59.35 77.46 59.79L77.46 62.51L77.78 62.6C77.81 62.61 77.83 62.62 77.86 62.64C77.94 62.7 78.05 62.79 78.2 62.9C78.32 62.99 78.44 63.1 78.59 63.22C78.89 63.46 79.24 63.76 79.63 64.12C79.73 64.21 79.83 64.3 79.92 64.39C80.42 64.86 80.99 65.4 81.52 66.01C81.67 66.18 81.82 66.35 81.97 66.53C82.12 66.72 82.27 66.9 82.41 67.08C82.59 67.32 82.79 67.57 82.96 67.83C83.04 67.96 83.13 68.08 83.21 68.21C83.43 68.54 83.62 68.88 83.8 69.22C83.88 69.38 83.96 69.55 84.03 69.72C84.24 70.18 84.4 70.65 84.5 71.11C84.53 71.21 84.55 71.32 84.57 71.42L84.57 71.44C84.6 71.58 84.61 71.73 84.62 71.88C84.67 72.35 84.65 72.83 84.55 73.31C84.5 73.52 84.44 73.71 84.37 73.91C84.3 74.11 84.24 74.31 84.15 74.51C83.98 74.91 83.77 75.31 83.53 75.68C83.45 75.82 83.36 75.96 83.27 76.1C83.17 76.25 83.06 76.39 82.97 76.52C82.84 76.7 82.71 76.88 82.57 77.04C82.45 77.21 82.32 77.38 82.18 77.53C81.99 77.75 81.8 77.97 81.61 78.18C81.5 78.31 81.37 78.45 81.25 78.57C81.12 78.71 81 78.84 80.88 78.95C80.69 79.14 80.53 79.29 80.39 79.42L80.08 79.71C80.03 79.75 79.97 79.77 79.91 79.77L77.46 79.77L77.46 82.92L80.54 82.92C81.23 82.92 81.89 82.67 82.42 82.22C82.6 82.06 83.39 81.38 84.32 80.35C84.35 80.31 84.39 80.29 84.44 80.27L92.96 77.81C93.12 77.77 93.28 77.89 93.28 78.05Z" fill="#10151A" fill-opacity="1.000000" fill-rule="nonzero"/>
		</g>
	</g>
</svg>
