<svg width="32.246094" height="32.246277" viewBox="0 0 32.2461 32.2463" fill="none" xmlns="http://www.w3.org/2000/svg" xmlns:xlink="http://www.w3.org/1999/xlink">
	<desc>
			Created with Pixso.
	</desc>
	<defs/>
	<path id="Star 21" d="M16.12 0.99L16.9 8.57C17.27 12.14 20.1 14.96 23.66 15.33L31.24 16.12L23.66 16.9C20.1 17.28 17.27 20.1 16.9 23.67L16.12 31.24L15.33 23.67C14.96 20.1 12.14 17.28 8.57 16.9L0.99 16.12L8.57 15.33C12.14 14.96 14.96 12.14 15.33 8.57L16.12 0.99Z" fill="#FF8135" fill-opacity="1.000000" fill-rule="nonzero"/>
	<path id="Star 21" d="M16.9 8.57C17.27 12.14 20.1 14.96 23.66 15.33L31.24 16.12L23.66 16.9C20.1 17.28 17.27 20.1 16.9 23.67L16.12 31.24L15.33 23.67C14.96 20.1 12.14 17.28 8.57 16.9L0.99 16.12L8.57 15.33C12.14 14.96 14.96 12.14 15.33 8.57L16.12 0.99L16.9 8.57Z" stroke="#FF8135" stroke-opacity="1.000000" stroke-width="1.996236" stroke-linejoin="round"/>
</svg>
