<svg width="61.000000" height="54.170898" viewBox="0 0 61 54.1709" fill="none" xmlns="http://www.w3.org/2000/svg" xmlns:xlink="http://www.w3.org/1999/xlink">
	<desc>
			Created with Pixso.
	</desc>
	<defs/>
	<path id="Union" d="M18.5742 0.969971C18.5195 0.418701 18.0547 0 17.5 0C16.9453 0 16.4805 0.418701 16.4258 0.969971L15.5703 9.20581C15.2188 12.5652 12.5664 15.2205 9.20703 15.5693L0.96875 16.4241C0.417969 16.4814 0 16.9458 0 17.5C0 18.0542 0.417969 18.5186 0.96875 18.5759L9.20703 19.4307C12.5664 19.7795 15.2188 22.4348 15.5703 25.7942L16.4258 34.03C16.4805 34.5813 16.9453 35 17.5 35C18.0547 35 18.5195 34.5813 18.5742 34.03L19.4297 25.7942C19.7812 22.4348 22.4336 19.7795 25.793 19.4307L34.0312 18.5759C34.582 18.5186 35 18.0542 35 17.5C35 16.9458 34.582 16.4814 34.0312 16.4241L25.793 15.5693C22.4336 15.2205 19.7812 12.5652 19.4297 9.20581L18.5742 0.969971Z" clip-rule="evenodd" fill="#4BE1F4" fill-opacity="1.000000" fill-rule="evenodd"/>
	<path id="Union" d="M53.0234 37.6421C52.9961 37.3743 52.7695 37.1709 52.5 37.1709C52.2305 37.1709 52.0039 37.3743 51.9766 37.6421L51.5625 41.6423C51.3945 43.2739 50.1016 44.5637 48.4727 44.7332L44.4727 45.1484C44.2031 45.176 44 45.4019 44 45.6709C44 45.9399 44.2031 46.1658 44.4727 46.1934L48.4727 46.6086C50.1016 46.7781 51.3945 48.0679 51.5625 49.6995L51.9766 53.6997C52.0039 53.9675 52.2305 54.1709 52.5 54.1709C52.7695 54.1709 52.9961 53.9675 53.0234 53.6997L53.4375 49.6995C53.6055 48.0679 54.8984 46.7781 56.5273 46.6086L60.5273 46.1934C60.7969 46.1658 61 45.9399 61 45.6709C61 45.4019 60.7969 45.176 60.5273 45.1484L56.5273 44.7332C54.8984 44.5637 53.6055 43.2739 53.4375 41.6423L53.0234 37.6421Z" clip-rule="evenodd" fill="#FFC803" fill-opacity="1.000000" fill-rule="evenodd"/>
</svg>
