<svg width="58.000000" height="59.000000" viewBox="0 0 58 59" fill="none" xmlns="http://www.w3.org/2000/svg" xmlns:xlink="http://www.w3.org/1999/xlink">
	<desc>
			Created with Pixso.
	</desc>
	<defs/>
	<path id="Union" d="M50.9609 44.4158C50.9375 44.1794 50.7383 44 50.5 44C50.2617 44 50.0625 44.1794 50.0391 44.4158L49.6719 47.9453C49.5234 49.385 48.3867 50.5229 46.9453 50.6726L43.4141 51.0388C43.1797 51.0635 43 51.2625 43 51.5C43 51.7375 43.1797 51.9365 43.4141 51.9612L46.9453 52.3274C48.3867 52.4771 49.5234 53.615 49.6719 55.0547L50.0391 58.5842C50.0625 58.8206 50.2617 59 50.5 59C50.7383 59 50.9375 58.8206 50.9609 58.5842L51.3281 55.0547C51.4766 53.615 52.6133 52.4771 54.0547 52.3274L57.5859 51.9612C57.8203 51.9365 58 51.7375 58 51.5C58 51.2625 57.8203 51.0635 57.5859 51.0388L54.0547 50.6726C52.6133 50.5229 51.4766 49.385 51.3281 47.9453L50.9609 44.4158Z" clip-rule="evenodd" fill="#A36FFE" fill-opacity="1.000000" fill-rule="evenodd"/>
	<path id="Union" d="M15.9219 0.831299C15.875 0.358887 15.4766 0 15 0C14.5234 0 14.125 0.358887 14.0781 0.831299L13.3438 7.89062C13.0469 10.7703 10.7695 13.0461 7.89062 13.345L0.832031 14.0779C0.359375 14.127 0 14.5251 0 15C0 15.4749 0.359375 15.873 0.832031 15.9221L7.89062 16.655C10.7695 16.9539 13.0469 19.2297 13.3438 22.1094L14.0781 29.1687C14.125 29.6411 14.5234 30 15 30C15.4766 30 15.875 29.6411 15.9219 29.1687L16.6562 22.1094C16.9531 19.2297 19.2305 16.9539 22.1094 16.655L29.168 15.9221C29.6406 15.873 30 15.4749 30 15C30 14.5251 29.6406 14.127 29.168 14.0779L22.1094 13.345C19.2305 13.0461 16.9531 10.7703 16.6562 7.89062L15.9219 0.831299Z" clip-rule="evenodd" fill="#C8D316" fill-opacity="1.000000" fill-rule="evenodd"/>
</svg>
