<svg width="273.000000" height="132.000000" viewBox="0 0 273 132" fill="none" xmlns="http://www.w3.org/2000/svg" xmlns:xlink="http://www.w3.org/1999/xlink">
	<desc>
			Created with Pixso.
	</desc>
	<defs>
		<linearGradient x1="179.064423" y1="90.408173" x2="221.564743" y2="47.993053" id="paint_linear_8758_23347_0" gradientUnits="userSpaceOnUse">
			<stop stop-color="#AEC6E2"/>
			<stop offset="1.000000" stop-color="#3B4B5D"/>
		</linearGradient>
		<linearGradient x1="222.791733" y1="37.144531" x2="189.345352" y2="98.184143" id="paint_linear_8758_23347_1" gradientUnits="userSpaceOnUse">
			<stop stop-color="#FFFFFF" stop-opacity="0.301961"/>
			<stop offset="1.000000" stop-color="#FFFFFF"/>
		</linearGradient>
	</defs>
	<rect id="Logo_6" rx="29.000000" width="271.000000" height="130.000000" transform="translate(1.000000 1.000000)" fill="#121E28" fill-opacity="1.000000"/>
	<path id="Vector" d="M45 80.9C45 73.52 50.78 67.66 57.81 67.66C62.15 67.66 65.96 69.84 68 73.39L66.03 74.58C64.32 71.75 61.23 69.97 57.81 69.97C52.23 69.97 47.56 74.78 47.56 80.9C47.56 87.09 52.16 91.9 57.81 91.9C61.23 91.9 64.32 90.19 66.03 87.36L68 88.54C65.96 92.1 62.15 94.27 57.81 94.27C50.78 94.21 45 88.34 45 80.9Z" fill="#FFFFFF" fill-opacity="1.000000" fill-rule="nonzero"/>
	<path id="Vector" d="M75.36 70.76C76.02 68.65 77.53 67.66 79.5 67.66C81.48 67.66 82.99 68.65 83.64 70.76L90.87 93.81L88.38 93.81L86.21 86.63L72.93 86.7L70.63 93.81L68.13 93.81L75.36 70.76ZM73.52 84.33L85.42 84.33L81.48 71.48C81.15 70.43 80.49 69.9 79.5 69.9C78.45 69.9 77.86 70.43 77.53 71.48L73.52 84.33Z" fill="#FFFFFF" fill-opacity="1.000000" fill-rule="nonzero"/>
	<path id="Vector" d="M94.56 93.81L94.56 68.06L101.99 68.06C108.56 68.06 113.03 70.95 113.03 76.95C113.03 83.14 108.36 85.91 102.05 85.91L96.99 85.91L96.99 93.88L94.56 93.88L94.56 93.81ZM96.99 70.36L96.99 83.54L101.99 83.54C106.72 83.54 110.47 81.63 110.47 76.88C110.47 72.34 106.98 70.3 101.99 70.3L96.99 70.3L96.99 70.36Z" fill="#FFFFFF" fill-opacity="1.000000" fill-rule="nonzero"/>
	<path id="Vector" d="M118.88 68.06L118.88 93.81L116.45 93.81L116.45 68.06L118.88 68.06Z" fill="#FFFFFF" fill-opacity="1.000000" fill-rule="nonzero"/>
	<path id="Vector" d="M140.18 70.36L131.96 70.36L131.96 93.81L129.53 93.81L129.53 70.36L121.38 70.36L121.38 68.06L140.18 68.06L140.18 70.36Z" fill="#FFFFFF" fill-opacity="1.000000" fill-rule="nonzero"/>
	<path id="Vector" d="M145.77 70.76C146.42 68.65 147.93 67.66 149.91 67.66C151.88 67.66 153.39 68.65 154.05 70.76L161.28 93.81L158.71 93.81L156.55 86.63L143.27 86.7L141.03 93.88L138.53 93.88L145.77 70.76ZM143.92 84.33L155.82 84.33L151.88 71.48C151.55 70.43 150.89 69.9 149.91 69.9C148.85 69.9 148.27 70.43 147.93 71.48L143.92 84.33Z" fill="#FFFFFF" fill-opacity="1.000000" fill-rule="nonzero"/>
	<path id="Vector" d="M167.39 91.51L180.8 91.51L180.8 93.81L167.39 93.81C165.55 93.81 164.96 92.89 164.96 91.37L164.96 68.06L167.39 68.06L167.39 91.51Z" fill="#FFFFFF" fill-opacity="1.000000" fill-rule="nonzero"/>
	<path id="Vector" d="M231.49 73.97C231 75.62 230.34 77.2 229.59 78.6C229.34 79.1 229.1 79.51 228.85 80.01C227.53 81.91 225.21 83.24 222.74 83.24C220.51 83.24 218.44 82.25 217.12 80.67C217.04 80.59 216.96 80.51 216.87 80.43C215.47 78.85 213.49 77.86 211.26 77.86C210.68 77.86 210.18 77.94 209.69 78.02L209.69 93.5C208.03 93.83 206.22 94 204.48 94C188.79 94 176.15 81.25 176.15 65.61C176.15 49.97 188.71 37.14 204.4 37.14C207.37 37.14 210.27 37.64 212.99 38.46L204.57 46.91L209.69 52.04L227.69 70.08L228.44 70.82L231.49 73.97Z" fill="url(#paint_linear_8758_23347_0)" fill-opacity="0" fill-rule="nonzero"/>
	<path id="Vector" d="M231.49 73.97C231 75.62 230.34 77.2 229.59 78.6C229.34 79.1 229.1 79.51 228.85 80.01C227.53 81.91 225.21 83.24 222.74 83.24C220.51 83.24 218.44 82.25 217.12 80.67C217.04 80.59 216.96 80.51 216.87 80.43C215.47 78.85 213.49 77.86 211.26 77.86C210.68 77.86 210.18 77.94 209.69 78.02L209.69 93.5C208.03 93.83 206.22 94 204.48 94C188.79 94 176.15 81.25 176.15 65.61C176.15 49.97 188.71 37.14 204.4 37.14C207.37 37.14 210.27 37.64 212.99 38.46L204.57 46.91L209.69 52.04L227.69 70.08L228.44 70.82L231.49 73.97Z" fill="url(#paint_linear_8758_23347_1)" fill-opacity="1.000000" fill-rule="nonzero"/>
	<path id="Vector" d="M45.92 58.4L48.03 57.34C49.16 59.92 51.72 61.31 55.02 61.31C58.58 61.31 61.28 59.46 61.28 56.29C61.28 52.85 58.18 52.19 54.82 51.47C50.93 50.61 46.52 49.49 46.52 44.34C46.52 40.31 50.27 37.21 54.75 37.21C58.44 37.21 61.81 38.99 63.19 42.36L61.15 43.41C59.96 40.9 57.72 39.52 54.69 39.52C51.66 39.52 49.02 41.5 49.02 44.21C49.02 47.64 52.19 48.3 55.61 49.03C59.5 49.88 63.85 51.01 63.85 56.22C63.72 60.78 59.89 63.68 55.02 63.68C50.93 63.68 47.37 61.83 45.92 58.4Z" fill="#FFFFFF" fill-opacity="1.000000" fill-rule="nonzero"/>
	<path id="Vector" d="M68.13 63.42L68.13 37.6L70.57 37.6L70.57 49.42L85.86 49.42L85.86 37.6L88.3 37.6L88.3 63.42L85.86 63.42L85.86 51.67L70.57 51.67L70.57 63.35L68.13 63.35L68.13 63.42Z" fill="#FFFFFF" fill-opacity="1.000000" fill-rule="nonzero"/>
	<path id="Vector" d="M97.06 37.6L97.06 63.42L94.62 63.42L94.62 37.6L97.06 37.6Z" fill="#FFFFFF" fill-opacity="1.000000" fill-rule="nonzero"/>
	<path id="Vector" d="M101.48 63.42L105.17 39.98C105.5 38.13 106.81 37.14 108.46 37.14C109.91 37.14 111.23 37.87 111.69 39.52L117.23 59.13C117.35 59.72 117.49 59.92 117.82 59.92C118.15 59.92 118.28 59.66 118.41 59.13L123.94 39.58C124.41 37.93 125.73 37.14 127.18 37.14C128.76 37.14 130.07 38.13 130.41 40.04L133.77 63.29L131.33 63.29L128.16 40.71C128.03 39.85 127.84 39.32 127.11 39.32C126.58 39.32 126.19 39.78 125.99 40.57L120.26 60.25C119.93 61.44 118.94 62.1 117.82 62.1C116.77 62.1 115.71 61.5 115.38 60.32L109.65 40.51C109.38 39.71 109.12 39.32 108.59 39.32C108.07 39.32 107.6 39.78 107.47 40.71L103.98 63.35L101.48 63.35L101.48 63.42Z" fill="#FFFFFF" fill-opacity="1.000000" fill-rule="nonzero"/>
	<path id="Vector" d="M142.92 40.31C143.58 38.2 145.1 37.21 147.07 37.21C148.99 37.21 150.57 38.2 151.23 40.31L158.48 63.42L155.97 63.42L153.8 56.22L140.48 56.29L138.18 63.42L135.67 63.42L142.92 40.31ZM141.08 53.91L153.01 53.91L149.05 41.04C148.72 39.98 148.06 39.45 147.07 39.45C146.02 39.45 145.43 39.98 145.1 41.04L141.08 53.91Z" fill="#FFFFFF" fill-opacity="1.000000" fill-rule="nonzero"/>
	<rect id="Logo_6" rx="29.000000" width="271.000000" height="130.000000" transform="translate(1.000000 1.000000)" stroke="#2A3744" stroke-opacity="1.000000" stroke-width="2.000000"/>
</svg>
