<svg width="150.000000" height="150.000000" viewBox="0 0 150 150" fill="none" xmlns="http://www.w3.org/2000/svg" xmlns:xlink="http://www.w3.org/1999/xlink">
	<desc>
			Created with Pixso.
	</desc>
	<defs>
		<filter id="filter_8758_23294_dd" x="0.000000" y="0.000000" width="150.000000" height="150.000000" filterUnits="userSpaceOnUse" color-interpolation-filters="sRGB">
			<feFlood flood-opacity="0" result="BackgroundImageFix"/>
			<feColorMatrix in="SourceAlpha" type="matrix" values="0 0 0 0 0 0 0 0 0 0 0 0 0 0 0 0 0 0 127 0" result="hardAlpha"/>
			<feOffset dx="0" dy="0"/>
			<feGaussianBlur stdDeviation="15.6667"/>
			<feComposite in2="hardAlpha" operator="out" k2="-1" k3="1"/>
			<feColorMatrix type="matrix" values="0 0 0 0 1 0 0 0 0 0.67451 0 0 0 0 0.19608 0 0 0 0.3 0"/>
			<feBlend mode="normal" in2="BackgroundImageFix" result="effect_dropShadow_1"/>
			<feBlend mode="normal" in="SourceGraphic" in2="effect_dropShadow_1" result="shape"/>
		</filter>
		<linearGradient x1="74.977661" y1="47.000000" x2="74.977661" y2="102.955322" id="paint_linear_8758_23296_0" gradientUnits="userSpaceOnUse">
			<stop stop-color="#FFCC4A"/>
			<stop offset="1.000000" stop-color="#FFAC32"/>
		</linearGradient>
	</defs>
	<g filter="url(#filter_8758_23294_dd)">
		<rect id="Frame 2091" rx="0.000000" width="54.601116" height="54.601116" transform="translate(47.699440 47.699440)" fill="#FFFFFF" fill-opacity="0"/>
		<path id="grey" d="M47 74.97C47 59.52 59.51 47 74.97 47C90.43 47 102.95 59.52 102.95 74.97C102.95 90.43 90.43 102.95 74.97 102.95C59.51 102.92 47 90.4 47 74.97Z" fill="#F7F7F7" fill-opacity="1.000000" fill-rule="nonzero"/>
		<path id="brown" d="M47 74.97C47 59.52 59.51 47 74.97 47C90.43 47 102.95 59.52 102.95 74.97C102.95 90.43 90.43 102.95 74.97 102.95C59.51 102.92 47 90.4 47 74.97Z" fill="url(#paint_linear_8758_23296_0)" fill-opacity="1.000000" fill-rule="nonzero"/>
		<path id="Path" d="M88.01 72.99C87.88 72.65 87.56 72.43 87.21 72.43L76.87 72.43L82.83 60.84C83.02 60.48 82.92 60.03 82.6 59.78C82.44 59.66 82.26 59.6 82.07 59.6C81.87 59.6 81.67 59.67 81.51 59.8L75.23 65.23L62.69 76.06C62.42 76.29 62.32 76.67 62.45 77C62.57 77.34 62.89 77.56 63.25 77.56L73.58 77.56L67.62 89.15C67.43 89.51 67.53 89.96 67.85 90.21C68.01 90.33 68.19 90.4 68.38 90.4C68.58 90.4 68.78 90.32 68.94 90.19L75.23 84.76L87.76 73.93C88.03 73.7 88.13 73.32 88.01 72.99Z" fill="#10151A" fill-opacity="1.000000" fill-rule="nonzero"/>
	</g>
</svg>
