<svg width="88.000000" height="89.179688" viewBox="0 0 88 89.1797" fill="none" xmlns="http://www.w3.org/2000/svg" xmlns:xlink="http://www.w3.org/1999/xlink">
	<desc>
			Created with Pixso.
	</desc>
	<defs/>
	<path d="M44.1758 1.05298C44.1133 0.45459 43.6094 0 43.0078 0C42.4062 0 41.9023 0.45459 41.8398 1.05298L40.9102 9.99487C40.5312 13.6423 37.6484 16.5251 34.0039 16.9038L25.0625 17.832C24.4609 17.894 24.0078 18.3984 24.0078 19C24.0078 19.6016 24.4609 20.106 25.0625 20.168L34.0039 21.0962C37.6484 21.4749 40.5312 24.3577 40.9102 28.0051L41.8398 36.947C41.9023 37.5454 42.4062 38 43.0078 38C43.6094 38 44.1133 37.5454 44.1758 36.947L45.1055 28.0051C45.4844 24.3577 48.3672 21.4749 52.0117 21.0962L60.9531 20.168C61.5547 20.106 62.0078 19.6016 62.0078 19C62.0078 18.3984 61.5547 17.894 60.9531 17.832L52.0117 16.9038C48.3672 16.5251 45.4844 13.6423 45.1055 9.99487L44.1758 1.05298Z" clip-rule="evenodd" fill="#4BE1F4" fill-opacity="1.000000" fill-rule="evenodd"/>
	<path d="M79.0859 70.7063C79.0547 70.407 78.8008 70.1797 78.5 70.1797C78.1992 70.1797 77.9453 70.407 77.9141 70.7063L77.4531 75.1772C77.2617 77.0007 75.8203 78.4421 73.9961 78.6316L69.5273 79.0957C69.2266 79.1267 69 79.3789 69 79.6797C69 79.9805 69.2266 80.2327 69.5273 80.2637L73.9961 80.7278C75.8203 80.9172 77.2617 82.3586 77.4531 84.1821L77.9141 88.6531C77.9453 88.9524 78.1992 89.1797 78.5 89.1797C78.8008 89.1797 79.0547 88.9524 79.0859 88.6531L79.5469 84.1821C79.7383 82.3586 81.1797 80.9172 83.0039 80.7278L87.4727 80.2637C87.7734 80.2327 88 79.9805 88 79.6797C88 79.3789 87.7734 79.1267 87.4727 79.0957L83.0039 78.6316C81.1797 78.4421 79.7383 77.0007 79.5469 75.1772L79.0859 70.7063Z" clip-rule="evenodd" fill="#F87388" fill-opacity="1.000000" fill-rule="evenodd"/>
	<path d="M10.0859 54.7063C10.0547 54.407 9.80078 54.1797 9.5 54.1797C9.19922 54.1797 8.94531 54.407 8.91406 54.7063L8.45312 59.1772C8.26172 61.0007 6.82031 62.4421 4.99609 62.6316L0.527344 63.0957C0.226562 63.1267 0 63.3789 0 63.6797C0 63.9805 0.226562 64.2327 0.527344 64.2637L4.99609 64.7278C6.82031 64.9172 8.26172 66.3586 8.45312 68.1821L8.91406 72.6531C8.94531 72.9524 9.19922 73.1797 9.5 73.1797C9.80078 73.1797 10.0547 72.9524 10.0859 72.6531L10.5469 68.1821C10.7383 66.3586 12.1797 64.9172 14.0039 64.7278L18.4727 64.2637C18.7734 64.2327 19 63.9805 19 63.6797C19 63.3789 18.7734 63.1267 18.4727 63.0957L14.0039 62.6316C12.1797 62.4421 10.7383 61.0007 10.5469 59.1772L10.0859 54.7063Z" clip-rule="evenodd" fill="#C8D316" fill-opacity="1.000000" fill-rule="evenodd"/>
</svg>
