<svg width="76.171875" height="57.000000" viewBox="0 0 76.1719 57" fill="none" xmlns="http://www.w3.org/2000/svg" xmlns:xlink="http://www.w3.org/1999/xlink">
	<desc>
			Created with Pixso.
	</desc>
	<defs/>
	<path id="Union" d="M60.6055 24.9146C60.5508 24.3948 60.1094 24 59.5859 24C59.0586 24 58.6211 24.3948 58.5664 24.9146L57.7539 32.6797C57.4258 35.8472 54.9102 38.3508 51.7266 38.6794L43.918 39.4856C43.3984 39.5396 43 39.9775 43 40.5C43 41.0225 43.3984 41.4604 43.918 41.5144L51.7266 42.3206C54.9102 42.6492 57.4258 45.1528 57.7539 48.3203L58.5664 56.0854C58.6211 56.6052 59.0586 57 59.5859 57C60.1094 57 60.5508 56.6052 60.6055 56.0854L61.4141 48.3203C61.7461 45.1528 64.2617 42.6492 67.4453 42.3206L75.25 41.5144C75.7734 41.4604 76.1719 41.0225 76.1719 40.5C76.1719 39.9775 75.7734 39.5396 75.25 39.4856L67.4453 38.6794C64.2617 38.3508 61.7461 35.8472 61.4141 32.6797L60.6055 24.9146Z" clip-rule="evenodd" fill="#F87388" fill-opacity="1.000000" fill-rule="evenodd"/>
	<path id="Union" d="M13.2695 0.692871C13.2266 0.299072 12.8945 0 12.5 0C12.1055 0 11.7734 0.299072 11.7305 0.692871L11.1211 6.57568C10.8711 8.9751 8.97656 10.8718 6.57422 11.1208L0.691406 11.7314C0.300781 11.7725 0 12.1042 0 12.5C0 12.8958 0.300781 13.2275 0.691406 13.2686L6.57422 13.8792C8.97656 14.1282 10.8711 16.0249 11.1211 18.4243L11.7305 24.3071C11.7734 24.7009 12.1055 25 12.5 25C12.8945 25 13.2266 24.7009 13.2695 24.3071L13.8789 18.4243C14.1289 16.0249 16.0234 14.1282 18.4258 13.8792L24.3086 13.2686C24.6992 13.2275 25 12.8958 25 12.5C25 12.1042 24.6992 11.7725 24.3086 11.7314L18.4258 11.1208C16.0234 10.8718 14.1289 8.9751 13.8789 6.57568L13.2695 0.692871Z" clip-rule="evenodd" fill="#C8D316" fill-opacity="1.000000" fill-rule="evenodd"/>
</svg>
