<svg width="159.000000" height="23.973877" viewBox="0 0 159 23.9739" fill="none" xmlns="http://www.w3.org/2000/svg" xmlns:xlink="http://www.w3.org/1999/xlink">
	<desc>
			Created with Pixso.
	</desc>
	<defs>
		<clipPath id="clip8758_23621">
			<rect id="TechCrunch-logo 1" rx="0.000000" width="158.733627" height="23.707487" transform="translate(0.133188 0.133188)" fill="white" fill-opacity="0"/>
		</clipPath>
	</defs>
	<rect id="TechCrunch-logo 1" rx="0.000000" width="158.733627" height="23.707487" transform="translate(0.133188 0.133188)" fill="#FFFFFF" fill-opacity="0"/>
	<g clip-path="url(#clip8758_23621)">
		<path id="Vector" d="M23.97 0L23.97 7.99L15.98 7.99L15.98 23.97L7.99 23.97L7.99 7.99L0 7.99L0 0L23.97 0Z" fill="#0A9E01" fill-opacity="1.000000" fill-rule="nonzero"/>
		<path id="Vector" d="M31.96 0L47.94 0L47.94 7.99L31.96 7.99L31.96 0Z" fill="#0A9E01" fill-opacity="1.000000" fill-rule="evenodd"/>
		<path id="Vector" d="M47.94 15.98L47.94 23.97L23.97 23.97L23.97 7.99L31.96 7.99L31.96 15.98L47.94 15.98Z" fill="#0A9E01" fill-opacity="1.000000" fill-rule="nonzero"/>
		<path id="Fill-4" d="M63.05 5.59L52.07 5.59L52.07 8.76L55.75 8.76L55.75 18.69L59.37 18.69L59.37 8.76L63.05 8.76L63.05 5.59Z" fill="#0A9E01" fill-opacity="1.000000" fill-rule="nonzero"/>
		<path id="Fill-5" d="M67.17 8.65C64.59 8.65 62.67 10.38 62.67 13.79C62.67 16.8 64.3 18.91 67.26 18.91C68.8 18.91 70.05 18.51 71.25 17.79L69.97 15.63C68.99 16.14 68.3 16.32 67.42 16.32C66.51 16.32 65.87 15.84 65.74 14.75L71.52 14.75C71.55 14.59 71.55 14.38 71.55 14.09C71.57 10.44 69.89 8.65 67.17 8.65ZM65.79 12.65C65.9 11.66 66.32 11.16 67.1 11.16C68.08 11.16 68.43 11.66 68.59 12.65L65.79 12.65Z" fill="#0A9E01" fill-opacity="1.000000" fill-rule="nonzero"/>
		<path id="Fill-6" d="M77.97 16.16C77.06 16.16 76.58 15.36 76.58 13.79C76.58 12.25 77.01 11.37 77.89 11.37C78.61 11.37 78.92 11.77 79.41 12.65L81.73 10.89C80.87 9.5 79.81 8.65 77.94 8.65C74.8 8.65 73.25 10.73 73.25 13.74C73.25 17.04 74.98 18.88 77.86 18.88C79.59 18.88 80.66 18.21 81.8 16.54L79.67 14.86C79.03 15.82 78.61 16.16 77.97 16.16Z" fill="#0A9E01" fill-opacity="1.000000" fill-rule="nonzero"/>
		<path id="Fill-7" d="M89.58 8.65C88.41 8.65 87.72 9.05 87.1 9.5L87.1 5.06L83.72 6.41L83.72 18.72L87.1 18.72L87.1 13.1C87.1 11.88 87.53 11.53 88.25 11.53C88.94 11.53 89.37 11.88 89.37 13.13L89.37 18.72L92.75 18.72L92.75 12.7C92.75 10.12 91.71 8.65 89.58 8.65Z" fill="#0A9E01" fill-opacity="1.000000" fill-rule="nonzero"/>
		<path id="Fill-8" d="M100.87 15.74C99.3 15.74 98.66 14.14 98.66 12.14C98.66 10.06 99.33 8.55 100.85 8.55C102.05 8.55 102.5 9.32 102.95 10.54L106.26 9.24C105.35 6.76 104.07 5.38 100.85 5.38C97.33 5.38 94.85 7.93 94.85 12.14C94.85 16.03 96.93 18.91 100.82 18.91C103.94 18.91 105.4 17.23 106.28 15.52L103.22 13.9C102.5 15.12 102.02 15.74 100.87 15.74Z" fill="#000000" fill-opacity="1.000000" fill-rule="nonzero"/>
		<path id="Fill-9" d="M111.71 9.58L111.71 8.86L108.33 8.86L108.33 18.69L111.71 18.69L111.71 13.34C111.71 12.14 112.22 11.74 113.05 11.74C113.71 11.74 114.19 12.09 114.62 12.57L115.42 9.08C115.02 8.84 114.54 8.65 113.82 8.65C112.94 8.65 112.27 9.02 111.71 9.58Z" fill="#000000" fill-opacity="1.000000" fill-rule="nonzero"/>
		<path id="Fill-10" d="M122.64 14.49C122.64 15.71 122.21 16.06 121.52 16.06C120.83 16.06 120.4 15.71 120.4 14.46L120.4 8.87L117.02 8.87L117.02 14.89C117.02 17.47 118.06 18.91 120.21 18.91C121.36 18.91 122.08 18.51 122.67 18.06L122.67 18.72L126.05 18.72L126.05 8.89L122.67 8.89L122.64 14.49Z" fill="#000000" fill-opacity="1.000000" fill-rule="nonzero"/>
		<path id="Fill-11" d="M134.33 8.65C133.16 8.65 132.46 9.05 131.85 9.5L131.85 8.84L128.47 8.84L128.47 18.67L131.85 18.67L131.85 13.05C131.85 11.82 132.28 11.48 133 11.48C133.69 11.48 134.12 11.82 134.12 13.07L134.12 18.67L137.5 18.67L137.5 12.65C137.5 10.12 136.49 8.65 134.33 8.65Z" fill="#000000" fill-opacity="1.000000" fill-rule="nonzero"/>
		<path id="Fill-12" d="M144.21 16.16C143.31 16.16 142.83 15.36 142.83 13.79C142.83 12.25 143.25 11.37 144.11 11.37C144.83 11.37 145.14 11.77 145.62 12.65L147.94 10.89C147.09 9.5 146.03 8.65 144.16 8.65C141.02 8.65 139.47 10.73 139.47 13.74C139.47 17.04 141.2 18.88 144.08 18.88C145.81 18.88 146.88 18.21 148.02 16.54L145.89 14.86C145.3 15.82 144.85 16.16 144.21 16.16Z" fill="#000000" fill-opacity="1.000000" fill-rule="nonzero"/>
		<path id="Fill-13" d="M155.82 8.65C154.65 8.65 153.96 9.05 153.35 9.5L153.35 5.06L149.96 6.41L149.96 18.72L153.35 18.72L153.35 13.1C153.35 11.88 153.77 11.53 154.49 11.53C155.19 11.53 155.61 11.88 155.61 13.13L155.61 18.72L159 18.72L159 12.7C159.02 10.12 157.98 8.65 155.82 8.65Z" fill="#000000" fill-opacity="1.000000" fill-rule="nonzero"/>
	</g>
</svg>
