<svg width="68.027344" height="54.233643" viewBox="0 0 68.0273 54.2336" fill="none" xmlns="http://www.w3.org/2000/svg" xmlns:xlink="http://www.w3.org/1999/xlink">
	<desc>
			Created with Pixso.
	</desc>
	<defs/>
	<path id="Union" d="M9.02344 37.7047C8.99609 37.437 8.76953 37.2336 8.5 37.2336C8.23047 37.2336 8.00391 37.437 7.97656 37.7047L7.5625 41.7051C7.39453 43.3368 6.10156 44.6265 4.47266 44.7958L0.472656 45.2111C0.203125 45.2389 0 45.4645 0 45.7336C0 46.0028 0.203125 46.2284 0.472656 46.2562L4.47266 46.6715C6.10156 46.8408 7.39453 48.1305 7.5625 49.7622L7.97656 53.7626C8.00391 54.0303 8.23047 54.2336 8.5 54.2336C8.76953 54.2336 8.99609 54.0303 9.02344 53.7626L9.4375 49.7622C9.60547 48.1305 10.8984 46.8408 12.5273 46.6715L16.5273 46.2562C16.7969 46.2284 17 46.0028 17 45.7336C17 45.4645 16.7969 45.2389 16.5273 45.2111L12.5273 44.7958C10.8984 44.6265 9.60547 43.3368 9.4375 41.7051L9.02344 37.7047Z" clip-rule="evenodd" fill="#FFC803" fill-opacity="1.000000" fill-rule="evenodd"/>
	<path id="Star 6" d="M50.96 1.06L50.13 9.03C49.73 12.83 46.73 15.84 42.93 16.23L34.96 17.06L42.93 17.89C46.73 18.28 49.73 21.28 50.13 25.08L50.96 33.06L51.78 25.08C52.18 21.28 55.18 18.28 58.98 17.89L66.96 17.06L58.98 16.23C55.18 15.84 52.18 12.83 51.78 9.03L50.96 1.06Z" fill="#77E6FF" fill-opacity="1.000000" fill-rule="nonzero"/>
	<path id="Star 6" d="M50.13 9.03C49.73 12.83 46.73 15.84 42.93 16.23L34.96 17.06L42.93 17.89C46.73 18.28 49.73 21.28 50.13 25.08L50.96 33.06L51.78 25.08C52.18 21.28 55.18 18.28 58.98 17.89L66.96 17.06L58.98 16.23C55.18 15.84 52.18 12.83 51.78 9.03L50.96 1.06L50.13 9.03Z" stroke="#77E6FF" stroke-opacity="1.000000" stroke-width="2.125318" stroke-linejoin="round"/>
</svg>
