<svg width="28.000000" height="28.000000" viewBox="0 0 28 28" fill="none" xmlns="http://www.w3.org/2000/svg" xmlns:xlink="http://www.w3.org/1999/xlink">
	<desc>
			Created with Pixso.
	</desc>
	<defs>
		<clipPath id="clip8758_27495">
			<rect id="Frame" rx="0.000000" width="26.600000" height="26.600000" transform="translate(0.700000 0.700000)" fill="white" fill-opacity="0"/>
		</clipPath>
	</defs>
	<g clip-path="url(#clip8758_27495)">
		<path id="Vector" d="M22.16 5.83C20.85 4.35 18.91 4.27 17.05 4.97C15.19 5.67 13.97 7.37 14 9.33L14 10.5C10.21 10.59 6.83 8.87 4.66 5.83C4.66 5.83 -0.22 14.5 9.33 18.66C7.14 20.12 4.96 21.1 2.33 21C6.19 23.1 10.39 23.82 14.03 22.76C18.21 21.55 21.64 18.42 22.96 13.73C23.35 12.31 23.55 10.83 23.54 9.35C23.54 9.06 25.3 6.12 25.66 4.67L25.66 4.67C24.5 5.25 23.35 5.48 22.16 5.83Z" stroke="#77E6FF" stroke-opacity="1.000000" stroke-width="2.100000" stroke-linejoin="round"/>
	</g>
</svg>
