<svg width="32.308594" height="32.309753" viewBox="0 0 32.3086 32.3098" fill="none" xmlns="http://www.w3.org/2000/svg" xmlns:xlink="http://www.w3.org/1999/xlink">
	<desc>
			Created with Pixso.
	</desc>
	<defs/>
	<path id="Star 23" d="M16.15 1.15L16.93 8.66C17.3 12.2 20.09 15 23.63 15.37L31.15 16.15L23.63 16.93C20.09 17.3 17.3 20.1 16.93 23.64L16.15 31.15L15.37 23.64C15 20.1 12.2 17.3 8.66 16.93L1.15 16.15L8.66 15.37C12.2 15 15 12.2 15.37 8.66L16.15 1.15Z" fill="#A36FFE" fill-opacity="1.000000" fill-rule="nonzero"/>
	<path id="Star 23" d="M16.93 8.66C17.3 12.2 20.09 15 23.63 15.37L31.15 16.15L23.63 16.93C20.09 17.3 17.3 20.1 16.93 23.64L16.15 31.15L15.37 23.64C15 20.1 12.2 17.3 8.66 16.93L1.15 16.15L8.66 15.37C12.2 15 15 12.2 15.37 8.66L16.15 1.15L16.93 8.66Z" stroke="#A36FFE" stroke-opacity="1.000000" stroke-width="2.309695" stroke-linejoin="round"/>
</svg>
