<svg width="55.000000" height="43.000000" viewBox="0 0 55 43" fill="none" xmlns="http://www.w3.org/2000/svg" xmlns:xlink="http://www.w3.org/1999/xlink">
	<desc>
			Created with Pixso.
	</desc>
	<defs/>
	<path id="Union" d="M15.3906 0.80365C15.3438 0.346985 14.9609 0 14.5 0C14.0391 0 13.6562 0.346985 13.6094 0.80365L12.8984 7.6277C12.6094 10.4112 10.4102 12.6113 7.62891 12.9002L0.804688 13.6086C0.347656 13.656 0 14.0409 0 14.5C0 14.9591 0.347656 15.344 0.804688 15.3914L7.62891 16.0998C10.4102 16.3887 12.6094 18.5888 12.8984 21.3723L13.6094 28.1964C13.6562 28.653 14.0391 29 14.5 29C14.9609 29 15.3438 28.653 15.3906 28.1964L16.1016 21.3723C16.3906 18.5888 18.5898 16.3887 21.3711 16.0998L28.1953 15.3914C28.6523 15.344 29 14.9591 29 14.5C29 14.0409 28.6523 13.656 28.1953 13.6086L21.3711 12.9002C18.5898 12.6113 16.3906 10.4112 16.1016 7.6277L15.3906 0.80365Z" clip-rule="evenodd" fill="#C8D316" fill-opacity="1.000000" fill-rule="evenodd"/>
	<path id="Union" d="M47.9609 28.4157C47.9375 28.1795 47.7383 28 47.5 28C47.2617 28 47.0625 28.1795 47.0391 28.4157L46.6719 31.9454C46.5234 33.3851 45.3867 34.5231 43.9453 34.6725L40.4141 35.0389C40.1797 35.0634 40 35.2625 40 35.5C40 35.7375 40.1797 35.9366 40.4141 35.9611L43.9453 36.3275C45.3867 36.4769 46.5234 37.6149 46.6719 39.0546L47.0391 42.5843C47.0625 42.8205 47.2617 43 47.5 43C47.7383 43 47.9375 42.8205 47.9609 42.5843L48.3281 39.0546C48.4766 37.6149 49.6133 36.4769 51.0547 36.3275L54.5859 35.9611C54.8203 35.9366 55 35.7375 55 35.5C55 35.2625 54.8203 35.0634 54.5859 35.0389L51.0547 34.6725C49.6133 34.5231 48.4766 33.3851 48.3281 31.9454L47.9609 28.4157Z" clip-rule="evenodd" fill="#A36FFE" fill-opacity="1.000000" fill-rule="evenodd"/>
</svg>
