<svg width="28.000000" height="28.000000" viewBox="0 0 28 28" fill="none" xmlns="http://www.w3.org/2000/svg" xmlns:xlink="http://www.w3.org/1999/xlink">
	<desc>
			Created with Pixso.
	</desc>
	<defs>
		<clipPath id="clip8758_27503">
			<rect id="Frame" rx="0.000000" width="26.600000" height="26.600000" transform="translate(0.700000 0.700000)" fill="white" fill-opacity="0"/>
		</clipPath>
	</defs>
	<g clip-path="url(#clip8758_27503)">
		<path id="Union" d="M21.5391 4.30933Q20.8945 4.16748 20.2227 4.16748L7.77344 4.16748Q7.10156 4.16748 6.45703 4.30933L6.45703 4.30933Q5.91797 4.42847 5.39844 4.64722Q4.87891 4.86694 4.41797 5.17261L4.41797 5.17261Q3.90625 5.51074 3.46094 5.95386Q3.01953 6.39673 2.67969 6.90918L2.67969 6.90918L2.67969 6.90918L2.67969 6.90918Q2.375 7.37231 2.15625 7.89209Q1.9375 8.40942 1.81641 8.94897L1.81641 8.94897Q1.67578 9.59204 1.67578 10.2664L1.67578 17.7341Q1.67578 18.4082 1.81641 19.051L1.81641 19.0515Q1.9375 19.5911 2.15625 20.1084Q2.375 20.6282 2.67969 21.0913L2.67969 21.0913Q3.01953 21.6035 3.46094 22.0466Q3.90625 22.4895 4.41797 22.8274L4.41797 22.8276Q4.87891 23.1333 5.39844 23.3533Q5.91797 23.572 6.45703 23.6909L6.45703 23.6909Q7.10156 23.833 7.77344 23.833L20.2227 23.833Q20.8945 23.833 21.5391 23.6912L21.5391 23.6912Q22.0781 23.572 22.5938 23.3533Q23.1133 23.1335 23.5781 22.8281L23.5781 22.8276L23.5781 22.8276L23.5781 22.8276Q24.0898 22.4895 24.5352 22.0466Q24.9766 21.604 25.3125 21.092L25.3164 21.0913L25.3164 21.0913L25.3164 21.0913Q25.6211 20.6282 25.8398 20.1084Q26.0586 19.5916 26.1758 19.0527L26.1797 19.0515Q26.3203 18.4084 26.3203 17.7341L26.3203 10.2664Q26.3203 9.59229 26.1797 8.94946L26.1797 8.94897L26.1797 8.94824Q26.0586 8.40918 25.8398 7.89209Q25.6211 7.37231 25.3164 6.90894Q24.9766 6.39673 24.5352 5.95386Q24.0898 5.51074 23.5781 5.17285L23.5781 5.17261L23.5781 5.17261Q23.1133 4.86694 22.5938 4.64722Q22.0781 4.42847 21.5391 4.30933L21.5391 4.30933ZM7.77344 6.40796L20.2227 6.40796Q20.668 6.40796 21.0938 6.50586L21.0938 6.50586Q21.4141 6.58008 21.7227 6.71069Q22.043 6.84521 22.3281 7.03125Q22.6602 7.24927 22.9492 7.53784Q23.2383 7.82666 23.457 8.16113L23.457 8.16113Q23.6406 8.44629 23.7773 8.76465Q23.9062 9.073 23.9805 9.39429Q24.0781 9.81909 24.0781 10.2664L24.0781 17.7341Q24.0781 18.1814 23.9805 18.606Q23.9062 18.9272 23.7773 19.2356Q23.6406 19.5542 23.457 19.8394L23.457 19.8396L23.457 19.8396Q23.2383 20.1741 22.9492 20.4624Q22.6602 20.751 22.3281 20.969L22.3281 20.969L22.3281 20.969L22.3281 20.969Q22.043 21.155 21.7227 21.2898Q21.4141 21.4202 21.0938 21.4944L21.0938 21.4946Q20.668 21.5925 20.2227 21.5925L7.77344 21.5925Q7.32812 21.5925 6.90234 21.4944L6.90234 21.4941Q6.58203 21.4199 6.27344 21.2898Q5.95312 21.155 5.66797 20.969L5.66797 20.9685Q5.33594 20.7505 5.04688 20.4624Q4.75781 20.1741 4.53906 19.8396L4.53906 19.8396L4.53906 19.8394Q4.35547 19.5542 4.21875 19.2356Q4.08984 18.9275 4.01562 18.6064L4.01562 18.606Q3.91797 18.1814 3.91797 17.7341L3.91797 10.2664Q3.91797 9.81909 4.01562 9.39429Q4.08984 9.073 4.21875 8.76465Q4.35547 8.44604 4.53906 8.16089L4.53906 8.16089Q4.75781 7.82642 5.04688 7.53784Q5.33594 7.24951 5.66797 7.03125L5.66797 7.03125Q5.95312 6.84521 6.27344 6.71069Q6.58203 6.58008 6.90234 6.50586L6.90234 6.50586Q7.32812 6.40796 7.77344 6.40796ZM18.3086 14.9602L12.0859 18.6941Q11.8867 18.8135 11.6758 18.845Q11.4648 18.8765 11.2383 18.8203Q11.0156 18.7642 10.8438 18.6365Q10.668 18.5088 10.5508 18.3098Q10.5117 18.2446 10.4805 18.1753Q10.4531 18.106 10.4297 18.0325Q10.4102 17.9592 10.4023 17.8845Q10.3906 17.8098 10.3906 17.7336L10.3906 10.2656Q10.3906 10.0337 10.4727 9.83569Q10.5547 9.6377 10.7188 9.47363Q10.8828 9.30957 11.082 9.22754Q11.2773 9.14551 11.5117 9.14551Q11.5859 9.14551 11.6602 9.15576Q11.7383 9.16577 11.8086 9.18604Q11.8828 9.20654 11.9531 9.23633Q12.0234 9.26587 12.0859 9.30518L18.3086 13.0391Q18.5078 13.1584 18.6367 13.3306Q18.7656 13.5029 18.8203 13.728Q18.8789 13.9531 18.8438 14.165Q18.8125 14.377 18.6953 14.5759Q18.6602 14.635 18.6172 14.689Q18.5742 14.7429 18.5273 14.7917Q18.4766 14.8406 18.4219 14.8826Q18.3711 14.9248 18.3086 14.9602ZM12.6328 12.2441L15.5586 13.9995L12.6328 15.7551L12.6328 12.2441Z" clip-rule="evenodd" fill="#F78787" fill-opacity="1.000000" fill-rule="evenodd"/>
	</g>
</svg>
